<svg width="26" height="26" viewBox="0 0 26 26" fill="none" xmlns="http://www.w3.org/2000/svg">
<path fill-rule="evenodd" clip-rule="evenodd" d="M22.7143 3.70258C23.4203 7.49215 21.8379 11.5114 18.6594 14.026L10.2375 20.6884C10.0305 20.8522 9.73375 20.835 9.54714 20.6483L5.3525 16.4537C5.16591 16.2671 5.14866 15.9703 5.31238 15.7633L11.9749 7.34148C14.4894 4.16297 18.5087 2.58057 22.2983 3.28662C22.5096 3.32599 22.6749 3.49128 22.7143 3.70258ZM15.3217 7.00211C14.3064 8.01748 14.3064 9.66373 15.3217 10.6791C16.3371 11.6945 17.9833 11.6945 18.9987 10.6791C20.014 9.66373 20.014 8.01748 18.9987 7.00211C17.9833 5.98676 16.3371 5.98676 15.3217 7.00211ZM18.2633 9.94369C17.6541 10.5529 16.6663 10.5529 16.0571 9.94369C15.4479 9.33445 15.4479 8.34677 16.0571 7.73752C16.6663 7.12828 17.6541 7.12828 18.2633 7.73752C18.8725 8.34677 18.8725 9.33445 18.2633 9.94369Z" fill="#3C7BEB"/>
<path opacity="0.5" fill-rule="evenodd" clip-rule="evenodd" d="M8.32009 20.9626L7.8582 21.4245C7.30479 21.9779 6.40755 21.9779 5.85414 21.4245L4.57518 20.1456C4.02177 19.5921 4.02177 18.6949 4.57518 18.1415L5.03708 17.6796L8.32009 20.9626ZM5.5876 13.5196L3.35894 12.038C3.05693 11.8372 3.03796 11.4015 3.3214 11.1754L7.34502 7.97873C8.21206 7.28986 9.36594 7.09934 10.3989 7.45476L5.5876 13.5196ZM18.5298 15.5996C18.9084 16.653 18.716 17.8373 18.0072 18.718L14.8198 22.6782C14.5941 22.9617 14.1593 22.9428 13.9589 22.6406L12.4801 20.4107L18.5298 15.5996Z" fill="#3C7BEB"/>
</svg>
