<svg width="26" height="26" viewBox="0 0 26 26" fill="none" xmlns="http://www.w3.org/2000/svg">
<path fill-rule="evenodd" clip-rule="evenodd" d="M21.8531 14.5883C21.0355 10.3455 17.3223 7.27954 13.0015 7.27954C8.68052 7.27954 4.96735 10.3455 4.14978 14.5883L3.18586 19.5908C3.14213 19.8178 3.12012 20.0483 3.12012 20.2795C3.12012 22.2898 4.7498 23.9195 6.7601 23.9195H19.2428C19.4739 23.9195 19.7045 23.8975 19.9315 23.8538C21.9055 23.4734 23.1974 21.5648 22.817 19.5908L21.8531 14.5883ZM15.0801 12.4795H13.5201V11.9595C13.5201 11.6723 13.2873 11.4395 13.0001 11.4395C12.7129 11.4395 12.4801 11.6723 12.4801 11.9595V12.4795H11.9746C11.113 12.4795 10.4146 13.178 10.4146 14.0395V14.5603C10.4146 15.4218 11.113 16.1203 11.9746 16.1203H14.0401C14.3273 16.1203 14.5601 16.3531 14.5601 16.6403V17.1595C14.5601 17.4467 14.3273 17.6795 14.0401 17.6795H11.4528C11.4315 17.4193 11.2175 17.2112 10.9504 17.203C10.6633 17.1943 10.4236 17.4199 10.4149 17.707L10.4004 18.1837C10.3915 18.477 10.6268 18.7195 10.9201 18.7195H12.4801V19.2304C12.4801 19.5176 12.7129 19.7504 13.0001 19.7504C13.2873 19.7504 13.5201 19.5176 13.5201 19.2304V18.7195H14.0401C14.9017 18.7195 15.6001 18.0211 15.6001 17.1595V16.6403C15.6001 15.7787 14.9017 15.0803 14.0401 15.0803H11.9746C11.6874 15.0803 11.4546 14.8475 11.4546 14.5603V14.0395C11.4546 13.7523 11.6874 13.5195 11.9746 13.5195H14.5756C14.632 13.7457 14.8365 13.9132 15.0801 13.9132C15.3673 13.9132 15.6001 13.6804 15.6001 13.3932V12.9995C15.6001 12.7123 15.3673 12.4795 15.0801 12.4795Z" fill="#3C7BEB"/>
<path opacity="0.5" fill-rule="evenodd" clip-rule="evenodd" d="M16.9784 7.05962C15.7524 6.5311 14.4058 6.24081 13.0016 6.24081C11.5973 6.24081 10.2506 6.53117 9.0245 7.05968L7.31864 2.79497C7.15432 2.38413 7.54549 1.96883 7.96546 2.10838L10.8903 3.08036L12.768 2.13717C12.9142 2.06375 13.0864 2.06338 13.2329 2.13617L15.133 3.08048L18.0364 2.10873C18.4565 1.96812 18.8488 2.38364 18.6842 2.79497L16.9784 7.05962Z" fill="#3C7BEB"/>
</svg>
