<svg width="26" height="26" viewBox="0 0 26 26" fill="none" xmlns="http://www.w3.org/2000/svg">
<path opacity="0.5" fill-rule="evenodd" clip-rule="evenodd" d="M11.9601 23.9204C6.50349 23.9204 2.08008 19.497 2.08008 14.0404C2.08008 8.58381 6.50349 4.1604 11.9601 4.1604C17.4167 4.1604 21.8401 8.58381 21.8401 14.0404C21.8401 19.497 17.4167 23.9204 11.9601 23.9204ZM11.9601 20.8004C8.22664 20.8004 5.20008 17.7738 5.20008 14.0404C5.20008 10.3069 8.22664 7.28037 11.9601 7.28037C15.6935 7.28037 18.72 10.3069 18.72 14.0404C18.72 17.7738 15.6935 20.8004 11.9601 20.8004ZM17.6801 14.0404C17.6801 17.1994 15.1192 19.7604 11.9601 19.7604C8.80105 19.7604 6.24009 17.1994 6.24009 14.0404C6.24009 10.8813 8.80105 8.32037 11.9601 8.32037C15.1192 8.32037 17.6801 10.8813 17.6801 14.0404ZM11.96 17.6804C9.94973 17.6804 8.32005 16.0507 8.32005 14.0404C8.32005 12.0301 9.94973 10.4004 11.96 10.4004C13.9704 10.4004 15.6 12.0301 15.6 14.0404C15.6 16.0507 13.9704 17.6804 11.96 17.6804ZM14.56 14.0404C14.56 15.4763 13.396 16.6404 11.96 16.6404C10.5241 16.6404 9.36005 15.4763 9.36005 14.0404C9.36005 12.6045 10.5241 11.4404 11.96 11.4404C13.396 11.4404 14.56 12.6045 14.56 14.0404Z" fill="#3C7BEB"/>
<path d="M20.6028 6.49889L12.5112 14.5904C12.2067 14.8951 11.7128 14.8951 11.4081 14.5904C11.1035 14.2858 11.1035 13.792 11.4081 13.4874L19.4997 5.3958V3.63889C19.4997 3.20811 19.8489 2.85889 20.2797 2.85889C20.7105 2.85889 21.0597 3.20811 21.0597 3.63889V4.93889H22.3597C22.7905 4.93889 23.1397 5.28811 23.1397 5.71889C23.1397 6.14967 22.7905 6.49889 22.3597 6.49889H20.6028Z" fill="#3C7BEB"/>
</svg>
