<svg width="26" height="26" viewBox="0 0 26 26" fill="none" xmlns="http://www.w3.org/2000/svg">
<path opacity="0.5" fill-rule="evenodd" clip-rule="evenodd" d="M13.0211 13.5189H21.8611C22.1483 13.5189 22.3811 13.7518 22.3811 14.0389C22.3811 19.4955 17.9577 23.9189 12.5011 23.9189C7.04451 23.9189 2.62109 19.4955 2.62109 14.0389C2.62109 8.58238 7.04451 4.15894 12.5011 4.15894C12.7883 4.15894 13.0211 4.39175 13.0211 4.67894V13.5189Z" fill="#3C7BEB"/>
<path d="M24.4616 10.9194C24.4616 11.2065 24.2287 11.4394 23.9416 11.4394H15.6216C15.3344 11.4394 15.1016 11.2065 15.1016 10.9194V2.59935C15.1016 2.31216 15.3344 2.07935 15.6216 2.07935C20.5038 2.07935 24.4616 6.03715 24.4616 10.9194Z" fill="#3C7BEB"/>
</svg>
