<svg width="81" height="81" viewBox="0 0 81 81" fill="none" xmlns="http://www.w3.org/2000/svg">
<g clip-path="url(#clip0_242_4869)">
<circle cx="40.2596" cy="40.0216" r="26" transform="rotate(57.1632 40.2596 40.0216)" fill="white"/>
<mask id="mask0_242_4869" style="mask-type:luminance" maskUnits="userSpaceOnUse" x="-1" y="0" width="386" height="237">
<path d="M384.983 183.532L27.3086 0.00259399L-0.00742303 53.2379L357.667 236.767L384.983 183.532Z" fill="white"/>
</mask>
<g mask="url(#mask0_242_4869)">
<path d="M66.8667 53.935C64.1637 59.1998 59.9604 63.5452 54.7888 66.4213C49.617 69.2976 43.7091 70.5752 37.8122 70.093C31.9152 69.6107 26.2942 67.39 21.6601 63.7121C17.0259 60.0339 13.5869 55.0635 11.7778 49.4295C9.96875 43.7955 9.8709 37.7511 11.4967 32.0607C13.1226 26.3701 16.399 21.2893 20.9117 17.4606C25.4244 13.6319 30.9705 11.2275 36.8487 10.5515C42.7269 9.87544 48.6731 10.9581 53.9351 13.6626C57.4311 15.4545 60.5397 17.9184 63.0826 20.9131C65.6258 23.908 67.5534 27.3749 68.7556 31.1159C69.9577 34.8567 70.4107 38.7982 70.0885 42.7146C69.7664 46.6312 68.6757 50.446 66.8784 53.9409L66.8667 53.935ZM52.2281 24.471C51.2789 23.8654 50.2792 23.3005 49.2466 22.7706C48.214 22.2408 47.178 21.7611 46.1325 21.3432L38.848 35.5397L44.9436 38.6675L52.2281 24.471ZM62.0625 39.9708C60.2155 38.1008 58.2392 36.3633 56.148 34.7711L50.0289 46.6963C45.6263 55.2765 39.6731 57.9231 32.9674 54.4823C26.2616 51.0414 24.9517 44.668 29.3544 36.0878L35.4734 24.1626C32.9584 23.3921 30.3925 22.7989 27.7945 22.3873L22.5216 32.6634C21.3108 34.9194 20.5617 37.3938 20.3178 39.9424C20.0741 42.4908 20.3405 45.0622 21.1016 47.5062C21.8627 49.9504 23.1033 52.2181 24.7506 54.177C26.3982 56.1358 28.4196 57.7466 30.6967 58.915C32.9738 60.0834 35.461 60.7861 38.013 60.9822C40.5652 61.1781 43.1307 60.8634 45.56 60.0563C47.9894 59.2493 50.2336 57.9662 52.1616 56.282C54.0897 54.5977 55.663 52.5461 56.7896 50.2469L62.0625 39.9708Z" fill="#7000FF"/>
</g>
</g>
<defs>
<clipPath id="clip0_242_4869">
<rect width="59.8344" height="59.8344" fill="white" transform="translate(27.3164) rotate(27.1632)"/>
</clipPath>
</defs>
</svg>
