<svg width="107" height="20" viewBox="0 0 107 20" fill="none" xmlns="http://www.w3.org/2000/svg">
<g clip-path="url(#clip0_509_8976)">
<path opacity="0.3" d="M10.5882 4.59207L13.5011 10.1939L16.4213 4.57817C16.7068 4.02655 17.341 3.83638 17.8377 4.15337C18.0074 4.26162 18.1391 4.41492 18.2275 4.59207C20.7718 9.48484 23.3153 14.3719 25.8599 19.2648C26.1476 19.8164 25.978 20.5225 25.4813 20.8419C25.3169 20.9476 25.1375 20.9977 24.9603 20.9975V21C14.4943 21 12.5078 21 2.04189 21C1.46653 21 1 20.482 1 19.8432C1 19.6039 1.06535 19.3814 1.17773 19.197C3.71197 14.3236 6.24778 9.45149 8.78188 4.57817C9.06738 4.02655 9.70163 3.83638 10.1983 4.15337C10.3679 4.26162 10.4997 4.41492 10.5882 4.59207Z" fill="#3C7BEB"/>
<path d="M87 7H91.5278C93.0913 7 94.3941 7.5773 95.4365 8.73134C96.4897 9.87435 97.0164 11.2971 97.0164 13.0001C97.0164 14.7029 96.4897 16.1257 95.4365 17.2687C94.3941 18.423 93.0913 19 91.5278 19H87V7ZM89.2476 16.7372H91.5278C92.5158 16.7372 93.3192 16.3944 93.9381 15.7086C94.557 15 94.8666 14.0971 94.8666 13.0001C94.8666 11.8913 94.557 10.9945 93.9381 10.3087C93.3192 9.6116 92.5158 9.26284 91.5278 9.26284H89.2476V16.7372ZM105.502 12.7772C106.5 13.3828 107 14.2971 107 15.5202C107 16.5371 106.658 17.3716 105.974 18.0229C105.29 18.6743 104.448 19 103.449 19H98.6124V7H103.107C104.074 7 104.894 7.32014 105.567 7.95998C106.24 8.59996 106.577 9.40581 106.577 10.3771C106.577 11.3714 106.218 12.1714 105.502 12.7772ZM103.107 9.21147H100.86V11.8515H103.107C103.455 11.8515 103.745 11.7258 103.979 11.4743C104.212 11.2229 104.329 10.9086 104.329 10.5317C104.329 10.1544 104.215 9.84015 103.987 9.5887C103.759 9.33726 103.466 9.21147 103.107 9.21147ZM100.86 16.7885H103.449C103.83 16.7885 104.144 16.6543 104.394 16.3857C104.644 16.1172 104.769 15.7772 104.769 15.3659C104.769 14.9658 104.644 14.6314 104.394 14.363C104.144 14.0944 103.83 13.9601 103.449 13.9601H100.86V16.7885Z" fill="#3C7BEB"/>
<path d="M31 11.4488C31 11.8467 30.8531 12.1875 30.5588 12.4717C30.2647 12.7557 29.9117 12.8978 29.4999 12.8978C29.0882 12.8978 28.7352 12.7557 28.4409 12.4717C28.1469 12.1875 28 11.8467 28 11.4488C28 11.0513 28.1469 10.7103 28.4409 10.4262C28.7352 10.1422 29.0882 10 29.4999 10C29.9117 10 30.2647 10.1422 30.5588 10.4262C30.8531 10.7103 31 11.0513 31 11.4488ZM31 17.5512C31 17.949 30.8531 18.2898 30.5588 18.5738C30.2647 18.8578 29.9117 19 29.4999 19C29.0882 19 28.7352 18.8578 28.4409 18.5738C28.1469 18.2898 28 17.949 28 17.5512C28 17.1533 28.1469 16.8125 28.4409 16.5285C28.7352 16.2443 29.0882 16.1022 29.4999 16.1022C29.9117 16.1022 30.2647 16.2443 30.5588 16.5285C30.8531 16.8125 31 17.1533 31 17.5512Z" fill="#3C7BEB"/>
<path d="M10.4519 4.59204L13.3234 10.194L16.2021 4.578C16.4837 4.02667 17.1088 3.83636 17.5985 4.15335C17.7657 4.26159 17.8956 4.41504 17.9827 4.59204L18 4.62539L14.9625 10.5511L14.9627 10.56C14.9627 11.068 14.779 11.5292 14.4825 11.8632L14.4805 11.8655C14.1839 12.1995 13.7748 12.4062 13.3234 12.4062C12.8722 12.4062 12.4629 12.1995 12.1664 11.8655L12.1643 11.8632C11.8679 11.5292 11.6842 11.068 11.6842 10.56L11.6844 10.5509L9.63891 6.56024L9.55942 6.56288L9.48084 6.56039L2.72999 19.7259L2.75713 19.8308C2.79233 19.9842 2.81129 20.14 2.81129 20.2949C2.81129 20.5445 2.767 20.7826 2.68674 21H2.02708C1.45977 21 1 20.482 1 19.8432C1 19.6039 1.06442 19.3814 1.17521 19.1969C3.67343 14.3236 6.17321 9.45147 8.67144 4.578C8.95262 4.02667 9.57799 3.83636 10.0676 4.15335C10.2348 4.26159 10.3647 4.41504 10.4519 4.59204Z" fill="#3C7BEB"/>
<path fill-rule="evenodd" clip-rule="evenodd" d="M18.9036 2.43799C19.513 2.41347 20 1.88513 20 1.21949C20 0.553862 19.4897 0 18.8599 0C18.2303 0 17.7199 0.7506 17.7199 1.21949C17.7199 1.68839 17.7986 1.72831 17.9321 1.92804L14.0295 9.15861C13.8996 9.10373 13.758 9.0735 13.6098 9.0735C13.4616 9.0735 13.3201 9.10373 13.1902 9.15861L10.8633 4.84747C10.8789 4.76692 10.8871 4.68338 10.8871 4.59798C10.8871 3.92451 10.3768 3.37849 9.74716 3.37849C9.11754 3.37849 8.60707 3.92451 8.60707 4.59798C8.60707 4.6821 8.6152 4.76435 8.6304 4.84362C6.16135 9.41751 3.69111 13.9905 1.22206 18.5644C1.19487 18.5623 1.16755 18.5612 1.14009 18.5612C0.510336 18.5612 0 19.107 0 19.7805C0 20.4541 0.510336 21 1.14009 21C1.76972 21 2.28005 20.4541 2.28005 19.7805C2.28005 19.5648 2.22767 19.3621 2.13571 19.1863L9.38744 5.75532C9.50046 5.79552 9.62135 5.81733 9.74716 5.81733C9.87285 5.81733 9.99387 5.79552 10.1068 5.75546L12.4777 10.1483C12.4725 10.1956 12.4698 10.244 12.4698 10.2929C12.4698 10.9663 12.9802 11.5123 13.6098 11.5123C14.2394 11.5123 14.7499 10.9663 14.7499 10.2929C14.7499 10.244 14.7471 10.1958 14.7419 10.1483L18.9036 2.43799Z" fill="#3C7BEB"/>
<path d="M42.8829 10.1262C43.804 10.1262 44.5403 10.4401 45.0917 11.0673C45.6431 11.6947 45.9188 12.5351 45.9188 13.5884V18.7646H43.8467V13.7396C43.8467 13.2355 43.7289 12.8432 43.4935 12.563C43.2578 12.283 42.9258 12.1428 42.4975 12.1428C42.0264 12.1428 41.6594 12.3054 41.3971 12.6302C41.1349 12.955 41.0037 13.4258 41.0037 14.0421V18.7646H38.9315V13.7396C38.9315 13.2355 38.8136 12.8432 38.578 12.563C38.3427 12.283 38.0107 12.1428 37.5822 12.1428C37.1219 12.1428 36.7549 12.3081 36.4818 12.6386C36.2088 12.9691 36.0723 13.4371 36.0723 14.0421V18.7646H34V10.3612H36.0723V11.2523C36.554 10.5015 37.2983 10.1262 38.3049 10.1262C39.3008 10.1262 40.0292 10.5293 40.4897 11.3362C41.0144 10.5293 41.8122 10.1262 42.8829 10.1262ZM51.5088 10.1262C49.1667 10.1262 47.2682 12.1125 47.2682 14.563C47.2682 17.0136 49.1667 19 51.5088 19C52.3012 19 53.0426 18.7723 53.6773 18.3765V18.7646H55.7493V14.563V10.3612H53.6773V10.7496C53.0426 10.3538 52.3012 10.1262 51.5088 10.1262ZM49.2439 14.563C49.2439 13.2543 50.2578 12.1932 51.5088 12.1932C52.7594 12.1932 53.7735 13.2543 53.7735 14.563C53.7735 15.8718 52.7594 16.9326 51.5088 16.9326C50.2578 16.9326 49.2439 15.8718 49.2439 14.563ZM59.8133 10.3612V11.8068C59.9954 11.2802 60.3061 10.8795 60.7451 10.6052C61.1839 10.3305 61.6873 10.1933 62.2551 10.1933V12.6134C61.6233 12.5239 61.0556 12.6583 60.5522 13.0169C60.0598 13.3642 59.8133 13.9414 59.8133 14.7481V18.7646H57.7411V10.3612H59.8133ZM67.5397 14.5125L70.8646 18.7646H68.4553L65.5315 14.9496V18.7646H63.4595V7H65.5315V14.0589L68.2946 10.3612H70.7684L67.5397 14.5125ZM79.121 15.454H73.0651C73.3329 16.5071 74.088 17.0335 75.3301 17.0335C76.1225 17.0335 76.7223 16.7536 77.1292 16.1934L78.7997 17.2016C78.0072 18.4006 76.84 19 75.298 19C73.9701 19 72.9045 18.5799 72.1015 17.7394C71.2984 16.8992 70.8967 15.8405 70.8967 14.563C70.8967 13.3082 71.2928 12.2551 72.0853 11.4034C72.8672 10.5518 73.8843 10.1262 75.1373 10.1262C76.3261 10.1262 77.2952 10.5518 78.0446 11.4034C78.8158 12.2551 79.2012 13.3082 79.2012 14.563C79.2012 14.7985 79.1746 15.0952 79.121 15.454ZM73.0332 13.7733H77.1292C77.0113 13.224 76.773 12.8038 76.4143 12.5127C76.0556 12.2212 75.6301 12.0756 75.1373 12.0756C74.5804 12.0756 74.1199 12.2241 73.756 12.5211C73.3919 12.8178 73.151 13.2355 73.0332 13.7733ZM85 10.3612V12.4453H83.1852V15.9412C83.1852 16.2327 83.2546 16.4454 83.3938 16.5798C83.533 16.7143 83.7366 16.7899 84.0042 16.8068C84.2719 16.8235 84.604 16.8209 85 16.7985V18.7646C83.5972 18.9328 82.5986 18.7956 82.0045 18.3531C81.41 17.9104 81.113 17.1065 81.113 15.9412V12.4453H79.7154V10.3612H81.113V8.664L83.1852 8.0085V10.3612H85Z" fill="#3C7BEB"/>
</g>
<defs>
<clipPath id="clip0_509_8976">
<rect width="107" height="20" fill="white"/>
</clipPath>
</defs>
</svg>
