<svg width="126" height="29" viewBox="0 0 126 29" fill="none" xmlns="http://www.w3.org/2000/svg">
<g opacity="0.2" clip-path="url(#clip0_225_346)">
<path fill-rule="evenodd" clip-rule="evenodd" d="M13.5795 0.387234C6.81869 1.09425 1.45765 6.4018 0.783846 13.0552C0.340676 17.4313 1.93273 21.6809 5.15348 24.719C9.13715 28.4768 14.9284 29.6514 20.0902 27.7485C24.3949 26.1615 27.6802 22.6245 28.9008 18.2629C30.0262 14.2412 29.314 9.96985 26.9445 6.53064C24.6851 3.25111 21.1465 1.0677 17.0902 0.450172C16.5006 0.360369 14.226 0.319629 13.5795 0.387234ZM17.6328 3.26984C21.0798 4.00845 24.0893 6.40168 25.6066 9.61088C25.9244 10.2832 26.2812 11.2256 26.2349 11.2712C26.1695 11.3358 24.6997 11.8572 24.2392 11.9791C22.0487 12.559 19.3987 12.476 17.7999 11.7775C17.033 11.4423 16.2381 10.7708 15.7261 10.0255L15.4817 9.66966L15.1244 9.86969L14.7671 10.0698L14.9614 10.4476C15.2177 10.9459 15.5649 11.3968 16.0414 11.8505L16.4305 12.2208L16.0785 13.0682C15.885 13.5343 15.5678 14.292 15.3737 14.752L15.0206 15.5883L15.2576 15.7308C15.3878 15.8091 15.5987 15.9201 15.7261 15.9776L15.9578 16.0821L16.5661 14.652C16.9008 13.8655 17.2191 13.1144 17.2737 12.9831L17.373 12.7442L17.6146 12.864C17.7475 12.93 18.0091 13.0333 18.1958 13.0937C18.3826 13.1542 18.5486 13.2375 18.5648 13.2791C18.5921 13.3492 17.9632 16.0436 17.7888 16.6036C17.7637 16.6844 17.844 16.7275 18.1708 16.8085C18.8652 16.9808 18.7706 17.1184 19.2174 15.2873C19.4354 14.3941 19.6133 13.6243 19.6126 13.5765C19.6115 13.4886 19.7501 13.4929 20.7055 13.61L21.0017 13.6463L20.9762 13.8756C20.9439 14.1666 20.8327 15.6172 20.7804 16.4284C20.7332 17.1616 20.7328 17.1611 21.3435 17.1626L21.7671 17.1635L21.8066 16.8324C21.8428 16.5287 21.9075 15.7144 22.0139 14.2227L22.0549 13.6468L22.6363 13.6043C22.9562 13.581 23.2649 13.5484 23.3223 13.5318C23.4164 13.5048 23.4314 13.6744 23.474 15.2465L23.5213 16.9912L23.9441 16.9558C24.6619 16.8956 24.6034 17.0458 24.5598 15.3737C24.5389 14.5718 24.5094 13.8163 24.4943 13.6949C24.4791 13.5736 24.4873 13.4433 24.5125 13.4056C24.5377 13.3677 24.7403 13.302 24.9628 13.2594C25.1853 13.2168 25.6305 13.1014 25.9521 13.003C26.3263 12.8886 26.5601 12.8458 26.601 12.8843C26.64 12.9211 26.6648 13.5248 26.6648 14.4391C26.6648 15.7635 26.6476 16.0163 26.5139 16.6589C25.5937 21.0848 22.3363 24.5053 17.9865 25.6134C17.1253 25.8328 15.8932 25.9925 15.0615 25.9925C13.3846 25.9925 11.415 25.5436 10.0028 24.8393L9.46976 24.5735L9.94842 23.7537C10.7467 22.3861 11.6788 20.4021 12.1554 19.0554C12.2622 18.7536 13.01 16.4895 13.1272 16.1129C13.1639 15.9948 13.1216 15.955 12.8083 15.8133C12.6097 15.7234 12.4137 15.65 12.3729 15.65C12.3322 15.65 12.1478 15.8034 11.9632 15.991C11.0567 16.9125 10.0789 17.3982 9.00013 17.4628C8.29052 17.5053 7.97409 17.3979 7.61227 16.9918C6.49628 15.7392 7.23477 12.4894 9.3618 9.29252C10.2097 8.01829 10.9652 7.09701 12.0128 6.06006C13.4076 4.67933 14.6448 3.78734 15.9094 3.25067C16.4517 3.02048 16.4701 3.02067 17.6328 3.26984ZM12.073 4.25106C8.4065 7.8341 6.34067 11.3817 6.01494 14.6543C5.74941 17.3226 7.01573 18.9057 9.19643 18.6317C9.88155 18.5455 10.3679 18.3688 10.9126 18.0079C11.1438 17.8547 11.3472 17.7433 11.3645 17.7603C11.4543 17.8491 10.4899 20.1873 9.89394 21.3258C9.37025 22.3261 8.42833 23.8483 8.33304 23.8483C8.22451 23.8483 7.45004 23.1966 6.8418 22.5934C4.90659 20.6742 3.81617 18.4542 3.49351 15.7764C3.37389 14.7838 3.37383 14.1842 3.49319 13.19C3.81611 10.4996 4.91808 8.26769 6.87192 6.34656C7.88045 5.355 8.62821 4.81864 9.81354 4.23668C10.9589 3.6744 12.0742 3.30421 13.2236 3.1048C13.2385 3.10228 12.7208 3.61808 12.073 4.25106ZM59.8082 6.95443C58.9498 7.04664 58.0789 7.29145 57.3367 7.64914C56.7661 7.92414 56.5873 8.04983 56.1487 8.48476C55.4827 9.14511 55.259 9.5804 55.1566 10.4156C55.0648 11.1646 55.178 11.8391 55.5091 12.5157C56.1275 13.7795 57.1629 14.5181 59.5374 15.3896C60.0991 15.5958 60.8459 15.8699 61.197 15.9988C62.4061 16.4427 62.8724 16.7409 63.1871 17.2715C63.4828 17.7701 63.3932 18.5032 62.978 18.9824C62.4853 19.5512 61.8258 19.7242 60.3776 19.6651C58.8634 19.6032 57.6963 19.3231 56.5499 18.7464L55.931 18.435L55.7171 18.6979C55.5996 18.8425 55.3347 19.1846 55.1286 19.4579L54.7537 19.9551L54.9715 20.1348C55.2761 20.3859 56.1448 20.9038 56.6012 21.1061C57.2051 21.3738 58.2062 21.6957 58.8672 21.8347C59.6434 21.998 61.3586 22.0655 62.1325 21.9632C64.3898 21.6649 66.1687 20.5629 66.7241 19.1186C67.0678 18.2249 66.9651 16.8008 66.4917 15.896C66.1562 15.2546 65.5103 14.6073 64.7925 14.1932C64.2039 13.8535 63.7514 13.6707 62.0268 13.0754C60.0082 12.3786 59.7199 12.2664 59.4176 12.0591C58.8569 11.6748 58.6757 11.3814 58.6757 10.8582C58.6757 10.2179 59.1609 9.59879 59.8298 9.38532C60.7828 9.08124 62.6495 9.25637 64.4766 9.82138C64.8761 9.94495 65.2238 10.0228 65.2491 9.99432C65.383 9.84408 66.083 8.4332 66.0569 8.366C66.0178 8.26521 64.8446 7.6925 64.2609 7.48921C63.7277 7.30354 62.9493 7.10967 62.3779 7.02028C61.7437 6.92095 60.4319 6.88734 59.8082 6.95443ZM69.7502 6.92341C69.5747 6.93652 69.3377 6.96269 69.2237 6.98155L69.0162 7.01586L69.0171 14.2181C69.0176 18.1793 69.0353 21.4842 69.0564 21.5622L69.0949 21.7041H70.8424H72.5899L72.6064 17.9045L72.6228 14.1048L75.3676 17.904L78.1117 21.703L80.1069 21.7036C81.2037 21.7039 82.1015 21.6914 82.1015 21.6759C82.1015 21.6508 81.2452 20.4717 80.6338 19.6545C80.3332 19.2528 78.9207 17.3192 78.7453 17.069C78.6723 16.9649 78.1861 16.2979 77.6657 15.5869C77.1445 14.8758 76.6341 14.177 76.531 14.0341L76.3434 13.7742L76.5575 13.4913C76.8331 13.127 77.3829 12.4215 78.4639 11.0462C78.9407 10.4392 79.5507 9.65884 79.8199 9.31197C80.0883 8.9651 80.5515 8.36919 80.8479 7.98759L81.3877 7.29392L79.3695 7.27723C77.511 7.26188 77.3428 7.26938 77.2454 7.37187C77.1875 7.43305 76.3942 8.4622 75.4822 9.65884C74.5708 10.8555 73.5542 12.187 73.2235 12.6178L72.6228 13.4009L72.5906 10.8519C72.562 8.54651 72.5476 8.27731 72.4403 8.03441C72.2842 7.68182 71.7766 7.23769 71.3492 7.07975C70.996 6.9492 70.3071 6.88185 69.7502 6.92341ZM88.4523 6.92391C87.8681 6.96736 86.9904 7.14567 86.4463 7.33162C83.4925 8.34089 82.0578 11.0975 82.2962 15.3031C82.4637 18.2622 83.6256 20.2753 85.7855 21.3484C87.0663 21.985 88.9792 22.2246 90.5592 21.9465C93.1286 21.4939 94.8976 19.9354 95.5935 17.5103C95.8677 16.5565 95.9622 15.7892 95.9643 14.5148C95.9672 12.645 95.7281 11.4681 95.0873 10.1948C94.6828 9.39176 94.2655 8.84946 93.6913 8.38157C92.863 7.70601 91.9824 7.30029 90.8756 7.08343C90.2363 6.95815 89.0458 6.87983 88.4523 6.92391ZM105.016 6.92127C104.317 6.99946 103.773 7.10733 103.283 7.26556C102.727 7.44515 101.939 7.80673 101.621 8.02854L101.45 8.14822L101.157 7.86657C100.808 7.53194 100.339 7.29994 99.8188 7.20515C99.4093 7.1306 98.6261 7.11462 98.3941 7.17601L98.2502 7.214V14.4591V21.7041H99.9985H101.746L101.785 21.5622C101.807 21.4842 101.824 18.923 101.823 15.8706C101.823 12.8184 101.823 10.2723 101.824 10.2128C101.825 10.085 102.74 9.78149 103.612 9.61944C104.357 9.48095 105.421 9.52572 105.923 9.71641C106.639 9.98887 107.148 10.6837 107.326 11.6357C107.391 11.9848 107.41 13.1746 107.41 16.8955V21.704L109.185 21.7041H110.96L110.935 16.4225C110.908 10.5201 110.927 10.771 110.445 9.75341C109.639 8.04983 107.97 7.01649 105.878 6.92436C105.527 6.9089 105.139 6.90752 105.016 6.92127ZM45.7181 7.01245C44.2226 7.19384 42.4448 7.79202 41.3 8.49898L40.9989 8.68493L41.4651 9.45591C41.7215 9.87995 41.946 10.2413 41.9638 10.259C41.9817 10.2767 42.1917 10.2185 42.4306 10.1296C43.9025 9.58224 45.4199 9.31155 46.759 9.35738C47.3645 9.3781 47.6173 9.41503 47.8978 9.52353C48.8337 9.88582 49.3543 10.7613 49.3558 11.9759L49.3564 12.5586L47.9362 12.5564C45.8863 12.5531 44.7364 12.712 43.4904 13.171C41.8075 13.7908 40.8038 14.8346 40.4618 16.3208C40.0741 18.0045 40.4742 19.6862 41.4933 20.6563C42.3808 21.5012 43.4811 21.941 44.8884 22.0133C46.5844 22.1003 47.9421 21.7747 49.2017 20.9785C49.5485 20.7593 49.5806 20.7504 49.6416 20.8563C49.809 21.1467 50.2332 21.5283 50.5777 21.6984C51.0878 21.9502 51.5133 22.0277 52.2666 22.006L52.899 21.9879V16.4067C52.899 11.1757 52.8916 10.7998 52.7815 10.4156C52.1751 8.30121 50.1388 7.06518 47.1224 6.98042C46.6133 6.9661 45.9814 6.98055 45.7181 7.01245ZM118.294 7.01775C117.543 7.10295 116.855 7.25552 116.059 7.5134C115.353 7.74222 114.017 8.34818 113.702 8.58315L113.55 8.69653L114.045 9.49297C114.317 9.93108 114.55 10.2895 114.563 10.2895C114.576 10.2895 114.738 10.2302 114.924 10.1576C116.751 9.44424 119.227 9.12962 120.294 9.47557C121.359 9.82117 121.927 10.7323 121.93 12.1012L121.932 12.557L120.511 12.5546C119.071 12.5522 118.274 12.6118 117.403 12.7869C114.956 13.2788 113.525 14.3993 113.021 16.2186C112.861 16.7935 112.859 18.296 113.017 18.8547C113.488 20.5293 114.798 21.6206 116.738 21.9548C117.354 22.0611 118.762 22.0477 119.323 21.9302C120.235 21.7393 121.181 21.3576 121.889 20.8946C122.096 20.7595 122.151 20.7451 122.176 20.8202C122.243 21.0201 122.85 21.5752 123.165 21.7241C123.62 21.9403 124.061 22.0194 124.809 22.0194H125.446L125.428 16.2964L125.409 10.5733L125.261 10.1489C125.092 9.66598 124.739 9.09801 124.349 8.67998C123.172 7.41877 120.711 6.74323 118.294 7.01775ZM90.0022 9.31268C90.5263 9.43469 90.8162 9.58627 91.1556 9.91552C91.8622 10.6016 92.1822 11.5883 92.3203 13.51C92.4614 15.4632 92.2144 17.3173 91.6746 18.3647C91.162 19.3596 90.2528 19.8042 88.8754 19.7339C86.9632 19.6362 86.1449 18.46 85.9273 15.4985C85.8156 13.9748 85.9624 12.2751 86.2924 11.267C86.6453 10.1897 87.2839 9.5376 88.2003 9.31862C88.7007 9.19908 89.5032 9.19646 90.0022 9.31268ZM49.3564 16.4225L49.3563 18.6455L49.0532 18.8125C47.6848 19.5665 45.9535 19.8093 45.0067 19.3799C44.7263 19.2528 44.3633 18.9163 44.1653 18.5998C44.0004 18.3365 43.867 17.7496 43.8678 17.2921C43.8714 15.3255 45.5841 14.261 48.8299 14.208L49.3564 14.1995V16.4225ZM121.932 16.4059V18.6123L121.692 18.7599C121.305 18.9988 120.405 19.3507 119.889 19.4648C119.183 19.6213 118.159 19.6145 117.737 19.4504C116.978 19.1563 116.547 18.5576 116.45 17.6647C116.328 16.545 116.736 15.6246 117.594 15.0804C118.475 14.5221 119.723 14.2363 121.405 14.2082L121.932 14.1995V16.4059Z" fill="#00A3A0"/>
</g>
<defs>
<clipPath id="clip0_225_346">
<rect width="126" height="29" fill="white"/>
</clipPath>
</defs>
</svg>
