<svg width="84" height="21" viewBox="0 0 84 21" fill="none" xmlns="http://www.w3.org/2000/svg">
<g clip-path="url(#clip0_225_348)">
<path fill-rule="evenodd" clip-rule="evenodd" d="M56.7909 6.1676C56.7909 7.64283 56.8035 8.42444 57.5568 9.75169C58.9645 12.2312 61.1678 13.1054 64.388 13.1054H76.7553C76.8596 13.1054 77.4946 12.915 78.0179 13.4272C78.6257 14.0223 78.4838 15.2377 77.4941 15.5647C76.9864 15.7323 63.3445 15.6203 61.6494 15.6203C60.5402 15.6203 59.1575 15.4815 58.3264 15.8268C55.8022 16.8759 56.5389 20.7369 59.2645 20.7369H77.2854C79.0687 20.7369 80.7962 19.81 81.8146 18.7659C84.4082 16.1075 84.2861 11.6119 80.8332 9.10217C79.9149 8.43478 78.4301 7.90118 76.8471 7.89908L63.5918 7.90328C63.0758 7.90748 62.7956 7.91767 62.4758 7.69789C61.8351 7.25745 61.7939 6.02972 62.5442 5.57156C63.0962 5.23474 66.0925 5.38707 66.8615 5.38707H78.7875C79.9123 5.38845 80.5702 5.31967 81.2261 4.83273C82.4391 3.93248 82.5826 2.15941 81.5391 1.03768C81.2553 0.732656 80.5128 0.270508 79.9358 0.270508H62.7977C59.8207 0.270508 56.7909 3.24472 56.7909 6.1676Z" fill="#EC8719"/>
<path fill-rule="evenodd" clip-rule="evenodd" d="M17.0388 15.6204H5.81982V5.38717H17.2155C17.9553 5.38717 18.608 5.61643 19.1484 5.83109C20.6799 6.43979 22.1625 8.36451 22.1625 9.98346C22.1625 11.9059 22.0121 12.7619 20.5511 14.2119C19.7932 14.9641 18.5269 15.6204 17.0388 15.6204ZM0.519531 20.7369H17.4805C20.2131 20.7369 22.6734 19.4014 24.4815 17.6368C28.8892 13.3346 28.3134 6.00944 23.2731 2.30221C21.8716 1.27122 19.6747 0.270508 17.7456 0.270508H0.519531V20.7369Z" fill="#EC8719"/>
<path fill-rule="evenodd" clip-rule="evenodd" d="M28.6123 2.87211V20.7369H33.8242V7.81519C34.3328 8.07949 37.5978 10.4836 38.5067 11.1101C38.8967 11.379 39.2329 11.638 39.6371 11.9083L45.4849 16.0538C46.2604 16.6291 47.0478 17.1409 47.8458 17.7255L51.3003 20.2313C52.9584 21.4675 55.4669 20.3257 55.4669 18.3087V0.270434H50.2553V13.1921L37.598 4.19735C37.3877 4.0429 37.2387 3.95604 37.0286 3.80215C35.6659 2.80371 34.262 1.8837 32.9544 0.864126C31.1169 -0.568781 28.6123 0.703763 28.6123 2.87211Z" fill="#EC8719"/>
</g>
<defs>
<clipPath id="clip0_225_348">
<rect width="84" height="21" fill="white"/>
</clipPath>
</defs>
</svg>
