<svg width="168" height="27" viewBox="0 0 168 27" fill="none" xmlns="http://www.w3.org/2000/svg">
<g opacity="0.15" clip-path="url(#clip0_225_352)">
<path fill-rule="evenodd" clip-rule="evenodd" d="M12.7715 1.38853L11.7145 2.44772L11.4711 2.2745C11.008 1.94482 9.91936 1.48077 9.30316 1.3503C5.94056 0.638356 2.62257 2.64444 1.74997 5.91708C1.55946 6.63187 1.53737 8.24337 1.70871 8.93266C1.84846 9.49492 2.32851 10.5826 2.61334 10.9824L2.80828 11.256L1.73134 12.3352C1.13896 12.9287 0.654297 13.4531 0.654297 13.5003C0.654297 13.5477 1.11899 14.0521 1.68688 14.6214L2.71955 15.6561L2.52461 15.9299C2.23925 16.3304 1.75946 17.418 1.62051 17.9795C1.46612 18.6033 1.46469 20.2737 1.61802 20.9064C1.8419 21.8305 2.45513 22.9501 3.13704 23.6801C4.43423 25.0684 5.88199 25.6959 7.78806 25.6959C9.16112 25.6959 10.1673 25.4129 11.3221 24.702L11.6525 24.4985L12.7426 25.5846L13.8329 26.6707L14.9163 25.5878L15.9996 24.5049L16.335 24.7072C17.627 25.4863 18.5963 25.7324 20.1479 25.6755C21.1007 25.6405 21.3924 25.5942 21.9502 25.39C23.5416 24.8071 24.8486 23.6459 25.5403 22.2003C25.7525 21.757 25.9793 21.1747 26.0442 20.9064C26.1976 20.2737 26.1961 18.6033 26.0418 17.9795C25.9029 17.4185 25.4231 16.3305 25.1382 15.9305L24.9438 15.6576L25.4213 15.2475C25.6839 15.022 26.1983 14.545 26.5643 14.1878L27.2298 13.5383L26.0961 12.4551L24.9624 11.3718L25.1468 11.1057C25.4524 10.6644 25.7425 10.0603 25.9595 9.41287C26.1354 8.88808 26.165 8.62045 26.165 7.5579C26.165 6.49324 26.1354 6.22769 25.9578 5.69535C25.3717 3.9392 24.2152 2.62093 22.6008 1.86872C21.7186 1.45772 20.9991 1.30782 19.9013 1.30631C18.7129 1.30463 17.8406 1.51856 16.8178 2.06243L16.0596 2.46555L14.9885 1.39749C14.3993 0.809979 13.8973 0.329346 13.8728 0.329346C13.8483 0.329346 13.3527 0.805988 12.7715 1.38853ZM14.9547 3.84704L15.9921 4.8814L16.6299 4.29105C17.755 3.24996 19.1162 2.77518 20.4263 2.96702C21.337 3.10042 21.9832 3.36091 22.6443 3.86115C24.2389 5.06792 24.8788 7.08251 24.2487 8.91311C24.0026 9.62801 23.6762 10.1443 23.0703 10.777L22.5356 11.3352L23.6179 12.4169L24.7001 13.4986L23.6251 14.5757L22.5502 15.6528L23.0823 16.198C23.9981 17.1365 24.4684 18.2524 24.4684 19.4873C24.4684 20.7437 24.0343 21.7693 23.1135 22.6877C22.1861 23.6126 21.2185 24.0044 19.8521 24.0085C18.6205 24.0122 17.6122 23.5945 16.5742 22.6506L16.0342 22.1596L15.2876 22.9142C14.8769 23.3293 14.3879 23.7917 14.2008 23.9418L13.8606 24.2148L12.8084 23.1658L11.7563 22.1169L11.1388 22.6991C9.41542 24.3241 7.02369 24.5184 5.15465 23.1852C4.53636 22.7442 3.95196 22.0493 3.67725 21.4285C2.85789 19.5771 3.1846 17.7567 4.61276 16.2148L5.16832 15.615L4.10911 14.559L3.04999 13.5031L4.13076 12.4201L5.21153 11.3372L4.59669 10.6881C3.12737 9.13701 2.8263 7.15811 3.78434 5.34882C4.17042 4.61975 5.01011 3.7941 5.72005 3.44553C7.6225 2.5114 9.61089 2.86023 11.2578 4.41699L11.7036 4.83847L12.7673 3.82967C13.3524 3.27488 13.8505 2.81908 13.8741 2.81686C13.8979 2.81464 14.384 3.27825 14.9547 3.84704ZM128.075 7.15863C125.958 7.44167 124.515 8.69197 124.269 10.4555C124.163 11.2067 124.271 12.0884 124.534 12.6314C125.081 13.7601 126.18 14.3623 128.962 15.0559C130.694 15.4878 131.226 15.8466 131.025 16.4473C130.883 16.8763 130.537 17.0449 129.732 17.078C128.551 17.1265 127.268 16.754 126.238 16.064C125.918 15.8492 125.625 15.6734 125.588 15.6734C125.551 15.6734 125.093 16.1623 124.572 16.76L123.622 17.8464L123.993 18.1663C124.466 18.5741 125.578 19.1676 126.383 19.4409C127.42 19.7937 128.664 19.9609 129.838 19.9056C131.579 19.8236 132.56 19.4515 133.495 18.5184C134.306 17.7098 134.498 17.2108 134.503 15.8952C134.506 14.7815 134.373 14.3699 133.803 13.7397C133.111 12.9737 132.209 12.5556 130.13 12.0379C128.49 11.6295 128.154 11.5004 127.905 11.1846C127.693 10.9148 127.679 10.8034 127.821 10.4933C128.198 9.6645 130.415 9.8855 132.046 10.9147C132.251 11.0441 132.438 11.15 132.461 11.15C132.485 11.15 132.889 10.6109 133.36 9.95201L134.215 8.75407L134.007 8.5787C133.661 8.28888 132.06 7.53104 131.491 7.388C130.4 7.11412 129.073 7.02502 128.075 7.15863ZM143.071 7.24642C140.713 7.87361 138.92 9.60944 138.306 11.8596C138.093 12.64 138.097 14.3412 138.313 15.1413C138.908 17.3504 140.678 19.0957 142.938 19.7029C143.712 19.9111 145.143 19.9784 145.971 19.8456C148.52 19.4363 150.49 17.8067 151.28 15.4542C151.792 13.9304 151.657 12.1727 150.91 10.6269C150.571 9.92534 150.386 9.67247 149.739 9.03039C148.858 8.15454 148.272 7.78194 147.175 7.39907C146.466 7.15132 146.282 7.12511 145.067 7.09851C143.954 7.07421 143.627 7.09838 143.071 7.24642ZM32.5981 13.4561V19.6647H34.3269H36.0557L36.0794 17.3364L36.103 15.0083L38.2992 14.9846L40.4954 14.9608V17.3128V19.6647H42.27H44.0446V13.4561V7.24747H42.3159H40.587L40.5634 9.57573L40.5397 11.9039L38.3436 11.9276L36.1474 11.9514V9.59937V7.24747H34.3728H32.5981V13.4561ZM62.7673 13.4561V19.6647H64.4965H66.2256L66.2493 16.3178L66.2724 12.971L68.8899 16.3136L71.5074 19.6561L73.0826 19.6604L74.6572 19.6647V13.4561V7.24747H72.9284H71.199L71.176 10.5068L71.1523 13.7661L68.596 10.5068L66.0391 7.24747H64.4033H62.7673V13.4561ZM79.1827 13.4561V19.6647L82.1777 19.6635C85.7907 19.6621 86.3111 19.5879 87.7691 18.8658C89.0248 18.2437 89.8115 17.4732 90.3985 16.2908C91.0784 14.9193 91.245 13.2451 90.8531 11.7266C90.4433 10.1415 89.372 8.83777 87.8752 8.10357C86.3632 7.36232 85.5581 7.24747 81.8693 7.24747H79.1827V13.4561ZM109.44 13.4492V19.6647H111.171H112.901V17.8021V15.9395H113.642H114.383L115.616 17.8L116.85 19.6605L118.873 19.6625L120.897 19.6647L119.677 17.8686C119.005 16.8808 118.342 15.9144 118.203 15.7212L117.951 15.3697L118.458 15.1137C119.733 14.469 120.532 13.1005 120.532 11.561C120.532 9.91968 119.8 8.60656 118.508 7.92734C117.385 7.33769 117.18 7.31286 113.101 7.27118L109.44 7.23377V13.4492ZM155.671 13.4561V19.6647H157.4H159.129L159.152 16.326L159.176 12.9873L161.793 16.324L164.411 19.6609L165.941 19.6627L167.472 19.6647V13.4561V7.24747H165.786H164.1V10.49C164.1 12.4521 164.068 13.7126 164.018 13.682C163.973 13.6541 162.812 12.1949 161.437 10.4394L158.939 7.24747H157.305H155.671V13.4561ZM48.57 13.5004V19.6647H53.6278H58.6856V18.2466V16.8286L55.3359 16.8053L51.9862 16.7821V15.8065V14.8308L54.981 14.8075L57.9757 14.7841V13.4561V12.1281L54.981 12.1046L51.9862 12.0813V11.15V10.2187L55.2915 10.1955L58.5969 10.1723V8.7542V7.33618H53.5834H48.57V13.5004ZM95.1545 13.5004V19.6647H100.212H105.27V18.2466V16.8286L101.921 16.8053L98.5712 16.7821V15.8065V14.8308L101.566 14.8075L104.561 14.7841V13.4561V12.1281L101.566 12.1046L98.5712 12.0813V11.15V10.2187L101.876 10.1955L105.182 10.1723V8.7542V7.33618H100.168H95.1545V13.5004ZM9.0839 13.4561V18.2456H10.4593H11.8346V16.383V14.5204H13.8755H15.9164V16.383V18.2456H17.2917H18.6671V13.4561V8.66662H17.2917H15.9164V10.3961V12.1256H13.8755H11.8346V10.3961V8.66662H10.4593H9.0839V13.4561ZM145.997 10.3751C146.682 10.6308 147.494 11.4508 147.775 12.17C148.065 12.9111 148.069 14.0812 147.783 14.8084C147.52 15.4798 146.842 16.2159 146.193 16.5343C145.748 16.7529 145.589 16.7821 144.845 16.782C143.853 16.782 143.414 16.6215 142.76 16.0191C141.531 14.8864 141.293 13.0001 142.198 11.5738C143.027 10.2691 144.483 9.80977 145.997 10.3751ZM84.8235 10.36C86.4666 10.6628 87.4351 11.806 87.4351 13.4436C87.4351 14.9537 86.6946 16.0191 85.3539 16.4381C85.0976 16.5181 84.4216 16.5982 83.7747 16.6253L82.6435 16.6726V13.4679V10.2631H83.4703C83.9249 10.2631 84.5336 10.3067 84.8235 10.36ZM115.949 10.3588C117.267 10.7247 117.396 12.4548 116.147 13.0218C115.843 13.1599 115.554 13.1865 114.343 13.1881L112.901 13.19V11.7266V10.2631L114.254 10.2636C114.999 10.2639 115.761 10.3067 115.949 10.3588Z" fill="#3F4651"/>
</g>
<defs>
<clipPath id="clip0_225_352">
<rect width="168" height="27" fill="white"/>
</clipPath>
</defs>
</svg>
