<svg width="87" height="25" viewBox="0 0 87 25" fill="none" xmlns="http://www.w3.org/2000/svg">
<g opacity="0.2" clip-path="url(#clip0_225_362)">
<path fill-rule="evenodd" clip-rule="evenodd" d="M1.69262 0.426991C1.17651 0.691023 0.871699 1.42055 0.765625 2.64593C0.579588 4.79419 0.541755 14.0554 0.703999 17.7336C0.814064 20.2288 1.00071 22.5107 1.14395 23.1121C1.34415 23.9527 1.80856 24.5341 2.37832 24.6574C3.0682 24.8066 3.66831 24.5008 3.83853 23.9133C3.99501 23.3731 3.92284 21.0716 3.58369 15.7858C3.40747 13.0393 3.44413 8.7678 3.68058 4.50097C3.72865 3.63374 3.76844 2.6301 3.76899 2.27072C3.77108 0.903797 3.38509 0.354582 2.39034 0.309257C2.04255 0.293366 1.91017 0.31575 1.69262 0.426991ZM23.698 1.6933C23.4103 1.81901 23.1616 2.0679 23.0914 2.30058C22.8879 2.97526 22.9645 3.29921 23.5761 4.34638C24.4395 5.82479 25.5423 8.15658 26.3837 10.2825C27.4626 13.0089 28.2015 15.2861 29.0362 18.4575C29.4051 19.8589 29.763 21.1571 29.8317 21.3422C30.0879 22.0327 30.542 22.4946 30.9641 22.494C31.2844 22.4935 31.7866 22.2061 32.1833 21.7964C32.8785 21.0784 33.6058 19.8679 34.5501 17.8572C35.9616 14.8515 36.8023 12.5405 37.5811 9.52554C38.3998 6.35542 38.6006 5.32782 38.6432 4.09033C38.672 3.24981 38.6617 3.10888 38.5422 2.71197C38.3218 1.97997 37.8999 1.65775 37.1611 1.65694C36.7657 1.65645 36.3631 1.85494 36.1743 2.14327C35.9967 2.41473 35.9342 2.68241 35.5307 4.90289C34.781 9.02804 33.8925 12.3321 32.8046 15.0405C32.4063 16.0324 31.7925 17.3626 31.7332 17.3626C31.711 17.3626 31.4904 16.6739 31.243 15.8322C28.7151 7.23304 26.6624 2.63499 24.9711 1.78266C24.5445 1.56772 24.063 1.53389 23.698 1.6933ZM14.7865 2.83347C13.203 3.08421 11.884 3.75685 10.6766 4.92942C8.90795 6.64682 7.79304 8.85993 7.3439 11.5447C7.18984 12.4659 7.19093 15.1962 7.34578 16.095C7.67168 17.9866 8.25916 19.2926 9.22546 20.2737C10.1258 21.1878 11.1146 21.6855 12.5997 21.9719C13.4616 22.1382 15.1254 22.1304 15.9107 21.9564C17.5247 21.5988 18.8912 20.8048 20.1232 19.5086C20.5428 19.0672 20.6427 18.9221 20.7261 18.6326C21.0481 17.5154 20.0493 16.3624 18.992 16.6309C18.7496 16.6925 18.583 16.8242 17.866 17.5217C17.4032 17.9719 16.8765 18.4529 16.6957 18.5907C16.0388 19.0908 15.2806 19.3413 14.4237 19.3413C13.2825 19.3413 12.3564 19.0098 11.6588 18.3518C10.7611 17.5049 10.3106 16.2554 10.1784 14.2461L10.1382 13.634L10.6178 13.6736C11.7869 13.7704 13.2893 13.7904 14.1632 13.7207C16.3147 13.5493 19.5108 12.9567 21.0776 12.4388C22.242 12.0538 22.7956 11.0121 22.6923 9.39999C22.563 7.38408 21.9156 5.91105 20.5914 4.62C19.6657 3.71746 18.7017 3.19904 17.4216 2.91534C16.9054 2.80095 15.3056 2.75123 14.7865 2.83347ZM73.822 2.8532C73.5112 2.99523 73.1454 3.47266 72.9725 3.96264C72.6424 4.89869 72.5982 5.33487 72.6006 7.62365C72.6037 9.85328 72.6472 10.5871 73.0287 14.8583C73.2101 16.8904 73.3812 19.1022 73.5233 21.2582C73.5741 22.0204 73.738 22.5598 73.9817 22.7669C74.3777 23.1027 75.1873 23.14 75.6324 22.8429C75.9305 22.6441 76.2146 22.0749 76.3144 21.4769C76.4269 20.805 76.3471 19.2159 76.1264 17.7336C75.6209 14.3326 75.5411 13.5262 75.5888 12.2638C75.659 10.4068 76.1239 9.20816 77.1972 8.11761C77.8224 7.48213 78.34 7.16993 79.0849 6.97774C80.9962 6.48475 82.5236 7.09188 83.283 8.647C83.7867 9.67841 83.9947 10.8959 83.9886 12.7868C83.9826 14.8186 83.7909 16.0266 83.0194 18.8873C82.5139 20.7629 82.4988 20.9076 82.7678 21.3169C83.0696 21.7768 83.8465 22.0095 84.3581 21.7929C84.4663 21.7469 84.6755 21.5773 84.8224 21.416C85.5777 20.5871 86.377 17.8724 86.744 14.8892C86.8674 13.8888 86.8486 11.0122 86.7144 10.1646C86.1908 6.87353 84.7668 4.9468 82.3349 4.23928C81.9171 4.11784 81.7145 4.10034 80.7229 4.09972C79.4562 4.09898 79.0662 4.17418 78.1701 4.59174C77.2873 5.003 76.341 5.77532 75.5169 6.75792L75.2575 7.06713L75.295 6.48926C75.3155 6.17146 75.4002 5.54857 75.483 5.10516C75.5658 4.66174 75.633 4.15655 75.6324 3.98255C75.6305 3.32308 75.1087 2.82296 74.3856 2.78666C74.157 2.77516 73.9351 2.80132 73.822 2.8532ZM59.6818 3.79383C58.3636 4.03443 56.9789 4.84644 56.6231 5.58753C56.4349 5.97968 56.4701 6.547 56.7049 6.90481C56.9692 7.30749 57.3088 7.49993 57.7551 7.49993C58.0818 7.49993 58.2179 7.45646 58.8633 7.14572C59.9629 6.61633 60.2378 6.53225 60.9877 6.49597C62.4546 6.42487 63.6191 6.98975 64.3738 8.13853C64.976 9.05475 65.2983 10.1969 65.4821 12.0612L65.5178 12.4177L64.9814 12.0052C64.349 11.5183 63.5418 11.1136 62.818 10.9198C62.3705 10.7998 62.1414 10.7801 61.1933 10.779C59.7346 10.7774 58.8524 10.9746 57.8618 11.5237C56.066 12.5191 55.0382 14.2394 54.8517 16.5618C54.6502 19.0719 55.4121 21.1731 56.9491 22.3452C57.4448 22.7233 58.3073 23.1387 58.9246 23.2968C60.6056 23.727 62.2158 23.6027 63.708 22.9273L64.1059 22.7474V23.1046C64.1059 24.0353 64.5207 24.5528 65.2704 24.5577C66.1805 24.5635 66.6998 23.8186 67.2071 21.781C68.4703 16.7096 68.613 11.7029 67.5875 8.45841C66.7373 5.76908 65.0383 4.19613 62.5435 3.78808C61.8524 3.67505 60.3159 3.67813 59.6818 3.79383ZM94.8778 3.79383C93.5597 4.03443 92.175 4.84644 91.8189 5.58753C91.6308 5.97968 91.6659 6.547 91.9011 6.90481C92.1653 7.30749 92.5045 7.49993 92.9514 7.49993C93.2779 7.49993 93.4139 7.45646 94.0591 7.14572C95.159 6.61633 95.4335 6.53225 96.1838 6.49597C97.6574 6.42456 98.8123 6.98786 99.5802 8.15237C100.173 9.05164 100.494 10.1953 100.679 12.0674L100.715 12.4301L100.484 12.2356C99.7573 11.6251 98.8649 11.1478 98.045 10.9305C97.4173 10.7642 96.1071 10.7018 95.3603 10.8024C93.8541 11.0056 92.5934 11.6211 91.6762 12.6013C91.1767 13.1355 90.9482 13.4732 90.6458 14.1238C89.855 15.826 89.8066 18.4299 90.534 20.2079C90.8726 21.0365 91.473 21.8326 92.1448 22.3452C93.2434 23.1829 94.7865 23.6059 96.4505 23.5257C97.4179 23.4791 98.0492 23.3096 99.2718 22.7678C99.3099 22.7508 99.325 22.8509 99.3105 23.0315C99.2791 23.4353 99.4042 23.9447 99.5898 24.1674C99.8142 24.4361 100.081 24.5547 100.467 24.5575C101.351 24.5637 101.888 23.823 102.364 21.9379C102.842 20.0508 103.177 18.1224 103.36 16.2186C103.461 15.1573 103.462 12.1473 103.36 11.2719C103.187 9.77194 102.759 8.13024 102.304 7.21347C101.343 5.27922 99.8063 4.12613 97.7396 3.78808C97.0485 3.67505 95.5121 3.67813 94.8778 3.79383ZM42.0596 4.39381C41.5335 4.60856 41.1824 4.96083 41.0498 5.40722C40.9403 5.776 41.0842 6.20438 41.7087 7.36774C42.3334 8.53158 42.5833 9.10085 42.7957 9.84389C43.2292 11.3604 43.3976 12.7202 43.4054 14.7655C43.4123 16.5588 43.3713 16.899 42.9072 18.9085C42.6199 20.1521 42.572 20.6333 42.6977 21.0161C42.8445 21.4635 43.3177 21.7529 43.9024 21.7529C44.5506 21.7529 44.9593 21.3958 45.4025 20.4422C46.0516 19.0453 46.319 16.9795 46.3225 13.336C46.3242 11.6426 46.3913 11.072 46.6844 10.2622C47.1399 9.00359 48.0124 8.19194 49.0833 8.03048C49.744 7.93097 50.0366 8.02426 50.8982 8.60926C51.2249 8.83115 51.5846 9.03011 51.6976 9.05152C52.1593 9.13883 52.6114 8.87176 52.8562 8.36719C53.0045 8.06152 53.0202 7.97091 52.9946 7.5692C52.9576 6.98688 52.781 6.61267 52.3348 6.17048C51.7119 5.55327 50.8273 5.24299 49.6906 5.24299C47.7236 5.24299 46.4358 6.04511 45.2411 8.0145L45.1165 8.21975L44.8519 7.39615C44.3686 5.89175 43.7072 4.80019 43.0811 4.47364C42.8181 4.33655 42.2993 4.29599 42.0596 4.39381ZM17.0891 5.6749C18.0933 5.98772 18.9245 6.85505 19.352 8.03609C19.5345 8.54036 19.7124 9.4181 19.7124 9.81408V10.0405L18.624 10.2715C15.8833 10.8531 14.9168 10.9627 12.5261 10.9627C11.2144 10.9627 10.5607 10.9409 10.516 10.8958C10.4685 10.8479 10.5038 10.6744 10.6406 10.2833C11.5364 7.72414 13.2044 6.01017 15.1795 5.61938C15.7077 5.51487 16.6647 5.5427 17.0891 5.6749ZM62.8004 13.4437C63.9916 13.6928 64.7571 14.4576 65.0951 15.7355C65.2517 16.3276 65.2838 17.6794 65.1556 18.2592C64.9597 19.1423 64.4687 19.9069 63.8096 20.3553C63.0985 20.8391 62.7781 20.918 61.5307 20.9165C60.5155 20.9153 60.4311 20.906 59.967 20.7424C59.1059 20.4391 58.5271 19.9546 58.1674 19.236C57.8483 18.5986 57.7672 18.1777 57.7644 17.1462C57.7617 16.1324 57.8399 15.7016 58.1404 15.0747C58.3434 14.6511 58.8783 14.0766 59.2883 13.8416C60.1511 13.3472 61.57 13.1863 62.8004 13.4437ZM97.9966 13.4437C99.1871 13.6928 99.952 14.4563 100.292 15.7355C100.462 16.3788 100.479 17.7449 100.324 18.3758C100.009 19.6566 99.1067 20.5656 97.8569 20.8602C97.317 20.9876 95.8954 20.9544 95.3573 20.8019C94.1722 20.4661 93.3976 19.6775 93.0717 18.4756C92.9181 17.9081 92.9145 16.3791 93.0657 15.8211C93.3069 14.9305 93.8136 14.2343 94.5192 13.8232C95.3337 13.3489 96.7855 13.1904 97.9966 13.4437Z" fill="#065903"/>
</g>
<defs>
<clipPath id="clip0_225_362">
<rect width="104" height="25" fill="white"/>
</clipPath>
</defs>
</svg>
