<svg width="98" height="24" viewBox="0 0 98 24" fill="none" xmlns="http://www.w3.org/2000/svg">
<g opacity="0.3" clip-path="url(#clip0_225_354)">
<path fill-rule="evenodd" clip-rule="evenodd" d="M4.47041 20.4795C3.52911 20.6292 2.98601 21.1128 2.88943 21.8875C2.8 22.6047 3.1971 23.2582 3.89567 23.5436C4.20188 23.6687 4.4059 23.6978 4.95608 23.6946C5.79576 23.6897 6.15067 23.5935 6.50624 23.2747C6.78643 23.0234 6.9878 22.678 6.88832 22.6196C6.81497 22.5766 5.83702 22.3621 5.82251 22.3859C5.54219 22.8471 5.21411 23.0279 4.79331 22.9529C4.18694 22.8449 3.97024 21.9268 4.43105 21.4184C4.58317 21.2505 4.65366 21.2282 5.02066 21.2316C5.38314 21.235 5.46018 21.2604 5.61114 21.4271L5.78476 21.6188L6.30901 21.5416C6.59734 21.4991 6.84653 21.4517 6.8628 21.4362C6.92222 21.3798 6.56794 20.9147 6.35671 20.7718C5.95627 20.501 5.13531 20.3738 4.47041 20.4795ZM20.6663 20.5351C20.1408 20.6755 20.0117 20.7498 19.8465 21.0072C19.6679 21.2855 19.6681 21.4473 19.8476 21.7268C20.0329 22.0155 20.4009 22.1884 21.1589 22.3431C21.5258 22.418 21.8455 22.5277 21.9532 22.6157L22.1334 22.7629L21.9758 22.9126C21.6954 23.1788 21.0407 23.0775 20.8803 22.7431C20.8062 22.5888 20.7617 22.5777 20.2204 22.5777C19.9012 22.5777 19.6207 22.6074 19.597 22.6438C19.5232 22.7573 19.7467 23.1639 19.9893 23.3578C20.306 23.6109 20.69 23.6954 21.5326 23.6973C22.1449 23.6987 22.3053 23.6738 22.6504 23.5237C23.1197 23.3197 23.3482 23.0244 23.3486 22.6214C23.3488 22.4039 23.2973 22.3048 23.0738 22.0925C22.7861 21.8192 22.5729 21.7399 21.6757 21.5727C21.3768 21.5169 21.0816 21.4223 21.0197 21.3626C20.9181 21.2645 20.9208 21.2442 21.0485 21.1543C21.3111 20.9695 21.874 21.0815 21.943 21.3324C21.9849 21.4844 22.1501 21.5016 22.8256 21.4246C23.1993 21.382 23.2118 21.3737 23.1661 21.2002C23.0989 20.9441 22.9232 20.7781 22.553 20.6209C22.1242 20.4388 21.1865 20.3961 20.6663 20.5351ZM43.8309 20.4719C43.3218 20.6507 43.1725 20.7464 43.0639 20.964C42.9342 21.2236 42.9916 21.5163 43.2191 21.7551C43.326 21.8673 43.3136 21.886 43.0451 22.0161C42.1622 22.4439 42.1632 23.2439 43.0471 23.5804C43.4969 23.7516 44.6321 23.7353 45.1886 23.5496C45.6069 23.4099 45.6075 23.4099 45.853 23.5476C46.1784 23.7298 46.225 23.7229 46.5517 23.4434C46.8586 23.1809 46.8557 23.1219 46.5294 22.9936C46.2799 22.8955 46.2563 22.7879 46.4293 22.537C46.581 22.3172 46.5176 22.259 46.0378 22.1774C45.6938 22.1189 45.6477 22.1262 45.5584 22.254C45.4606 22.3939 45.4569 22.3933 45.1826 22.1945C44.9291 22.011 44.917 21.9876 45.0414 21.9223C45.3335 21.7687 45.726 21.3444 45.726 21.182C45.726 20.9612 45.5491 20.7326 45.2731 20.597C45.0472 20.4862 44.0394 20.3986 43.8309 20.4719ZM58.4914 20.5019C58.0072 20.5989 57.5671 20.8276 57.3539 21.0931C56.9078 21.6485 56.9452 22.6181 57.4323 23.1302C57.8201 23.5378 58.3008 23.6998 59.1422 23.7063C59.7821 23.7113 59.886 23.6931 60.2758 23.5081C60.5386 23.3834 60.7685 23.2133 60.8689 23.0693C61.1395 22.6812 61.0992 22.6155 60.5064 22.4796C60.1355 22.3946 59.9718 22.3818 59.9527 22.4362C59.8841 22.6318 59.5563 22.91 59.348 22.9496C58.6885 23.0749 58.2903 22.6868 58.3521 21.9791C58.3906 21.5376 58.5873 21.2979 58.9663 21.2304C59.2792 21.1747 59.6968 21.2979 59.7969 21.4756C59.8381 21.5487 59.9254 21.6085 59.9908 21.6085C60.2848 21.6085 61.0329 21.449 61.0329 21.3863C61.0329 21.2129 60.5706 20.7846 60.2358 20.6478C59.8181 20.4771 58.9692 20.4062 58.4914 20.5019ZM12.275 21.0694C12.1215 21.385 11.7786 22.075 11.5131 22.6028C11.2477 23.1307 11.0305 23.5914 11.0305 23.6266C11.0305 23.6625 11.3109 23.6818 11.6679 23.6707L12.3053 23.6506L12.4338 23.391L12.5623 23.1314H13.2548H13.9473L14.064 23.4084L14.1806 23.6852H14.8287C15.2991 23.6852 15.4766 23.6615 15.4759 23.5987C15.4754 23.5512 15.138 22.8424 14.7262 22.0239L13.9774 20.5355L13.2658 20.5157L12.5543 20.4958L12.275 21.0694ZM27.868 22.093V23.6907L28.5058 23.6707L29.1436 23.6506L29.1646 23.0077L29.1856 22.3648L29.857 22.3847L30.5285 22.4046L30.5495 23.0475L30.5705 23.6906L31.2055 23.6706L31.8405 23.6506V22.093V20.5355L31.2059 20.5155L30.5712 20.4956L30.5499 21.0348L30.5285 21.5739L29.8574 21.5937L29.1863 21.6136L29.1649 21.0746L29.1436 20.5355L28.5058 20.5155L27.868 20.4955V22.093ZM66.6201 20.6888C66.3495 21.1858 65.1877 23.5649 65.1877 23.6214C65.1877 23.6565 65.4657 23.6852 65.8059 23.6852H66.4235L66.5739 23.4058L66.7237 23.1266L67.4257 23.1463L68.1271 23.1661L68.2128 23.4084L68.2978 23.6506L68.966 23.6706C69.4744 23.6858 69.6329 23.6692 69.6292 23.6014C69.6267 23.5523 69.2902 22.8424 68.8809 22.0239L68.137 20.5355L67.4312 20.5157L66.7249 20.496L66.6201 20.6888ZM73.9689 20.584C73.9485 20.6354 73.9405 21.3463 73.951 22.164L73.9707 23.6506L74.6087 23.6707L75.2466 23.6907V23.069C75.2466 22.7271 75.2762 22.4297 75.3131 22.4082C75.4746 22.3136 75.7736 22.537 76.115 23.007C76.3172 23.2848 76.5175 23.5512 76.56 23.5987C76.65 23.6998 78.0165 23.723 78.0165 23.6234C78.0165 23.4734 77.2226 22.4648 77.0377 22.3798L76.8331 22.2856L77.1209 22.1634C77.8809 21.8402 77.937 21.0141 77.222 20.6657C76.9976 20.5564 76.7437 20.5343 75.4833 20.5142C74.2943 20.4953 73.9997 20.5089 73.9689 20.584ZM82.3519 20.583C82.3309 20.6349 82.3229 21.3463 82.3334 22.164L82.3531 23.6506L82.9911 23.6707L83.629 23.6907V23.069C83.629 22.7271 83.6616 22.4282 83.7011 22.4048C83.865 22.3089 84.1917 22.5752 84.5714 23.1142L84.9739 23.6852H85.6864C86.0784 23.6852 86.3982 23.6637 86.3982 23.6374C86.3982 23.4921 85.6149 22.4849 85.4318 22.3952L85.2179 22.2901L85.5088 22.1535C85.9039 21.9679 86.0389 21.8088 86.0864 21.4757C86.1344 21.1334 85.9156 20.7809 85.5668 20.6389C85.2309 20.5021 82.4043 20.4529 82.3519 20.583ZM90.3349 20.546C90.3349 20.5707 90.6708 20.9674 91.0819 21.4275L91.8289 22.264L91.8653 22.9573L91.9016 23.6506L92.5396 23.6707L93.1775 23.6907V23.0415V22.3924L93.9794 21.4762C94.4201 20.9724 94.7806 20.5468 94.7806 20.5305C94.7806 20.5143 94.4712 20.5009 94.0928 20.5009H93.4043L93.0542 20.9302C92.8613 21.1663 92.669 21.4029 92.6265 21.456C92.5655 21.5326 92.4632 21.4435 92.1328 21.0267L91.7161 20.5009H91.0252C90.6455 20.5009 90.3349 20.5212 90.3349 20.546ZM44.7355 21.0981C44.7858 21.2226 44.6821 21.3708 44.4686 21.4793C44.2341 21.5985 43.9116 21.2088 44.0982 21.0317C44.2015 20.9334 44.6896 20.9844 44.7355 21.0981ZM76.3215 21.2779C76.4577 21.3836 76.4312 21.5941 76.2716 21.6753C76.1939 21.7147 75.932 21.7469 75.6885 21.7469H75.2466V21.4751C75.2466 21.2782 75.2793 21.1971 75.3662 21.1809C75.5831 21.1404 76.2284 21.2059 76.3215 21.2779ZM84.7039 21.2793C84.8401 21.3829 84.8136 21.5941 84.654 21.6753C84.5763 21.7147 84.3137 21.7469 84.0709 21.7469H83.629V21.4758C83.629 21.3267 83.6678 21.1922 83.7159 21.177C83.8656 21.1296 84.6084 21.2065 84.7039 21.2793ZM13.4661 21.9109C13.5698 22.1725 13.6545 22.3984 13.6545 22.4128C13.6545 22.4273 13.4741 22.4392 13.2536 22.4392C13.0332 22.4392 12.8528 22.4165 12.8528 22.3887C12.8528 22.3066 13.2311 21.3909 13.2555 21.4142C13.2677 21.4259 13.3625 21.6494 13.4661 21.9109ZM67.602 21.8534C67.8547 22.484 67.8688 22.4392 67.4158 22.4392C67.1927 22.4392 67.0097 22.4159 67.0097 22.3873C67.0097 22.2435 67.3456 21.4724 67.4004 21.4898C67.4355 21.5009 67.5262 21.6645 67.602 21.8534ZM44.3565 22.6627L44.7959 22.9555L44.5868 23.0403C44.1377 23.2225 43.5393 23.0738 43.5393 22.7801C43.5393 22.6719 43.7959 22.37 43.8878 22.37C43.9038 22.37 44.1148 22.5017 44.3565 22.6627Z" fill="#0237A9"/>
<path fill-rule="evenodd" clip-rule="evenodd" d="M0.651804 0.357833C0.629788 0.391615 0.612953 4.33296 0.614337 9.11631L0.616813 17.8134L3.21898 17.7952L5.82107 17.777L5.85752 12.4466C5.87756 9.51494 5.91416 7.16306 5.93879 7.22013C5.96343 7.27726 6.26966 8.08717 6.61938 9.02001C6.9691 9.95279 7.31721 10.8718 7.39296 11.0622C7.55112 11.4594 8.45377 13.8593 8.81218 14.8349C9.26932 16.0798 9.70404 17.2244 9.81782 17.4832L9.9319 17.7424H12.4842C14.841 17.7424 15.0416 17.7331 15.1032 17.6213C15.1398 17.5546 15.356 16.9861 15.5839 16.3579C15.8116 15.7297 16.0761 15.0132 16.1717 14.7657C16.2673 14.5182 16.5297 13.8173 16.7549 13.2081C16.98 12.5989 17.3565 11.5865 17.5916 10.9583C17.8265 10.3301 18.237 9.22419 18.5035 8.50079C18.7701 7.7774 19.0186 7.15592 19.0558 7.11974C19.0974 7.07935 19.1234 9.13012 19.1234 12.4501V17.8462L21.6928 17.8116L24.2622 17.777V9.05461V0.33222H20.5547H16.8471L16.525 1.0937C16.3478 1.51251 15.9762 2.36917 15.6992 2.99739C15.4223 3.62561 15.0107 4.57573 14.7847 5.10877C14.5586 5.6418 14.1995 6.48292 13.9866 6.97785C13.7738 7.47283 13.3794 8.3918 13.1101 9.02001C12.8409 9.64823 12.5776 10.2401 12.525 10.3353L12.4292 10.5084L12.3572 10.3353C12.2644 10.1123 11.3393 7.9454 10.6726 6.38944C10.3871 5.72314 10.0072 4.83533 9.82817 4.41651C9.64924 3.9977 9.18032 2.9074 8.78617 1.99363L8.06941 0.33222L4.38056 0.31429C2.28745 0.304114 0.674473 0.322943 0.651804 0.357833ZM25.7564 9.05461V17.8116H33.8837H42.0109V15.6483V13.485L36.6298 13.499C33.6702 13.5067 31.1766 13.4951 31.0884 13.4732C30.9307 13.434 30.9283 13.4155 30.948 12.3516L30.9681 11.2698L36.4895 11.2521L42.0109 11.2343V9.0892V6.94413L36.4895 6.92633L30.9681 6.90866L30.948 5.81875L30.9279 4.72893L36.4512 4.71114L41.9744 4.69342L41.9937 2.49551L42.0129 0.297607H33.8846H25.7564V9.05461ZM43.1042 2.51282V4.72803H45.874H48.6438V11.2698V17.8116H51.4136H54.1835V11.2698V4.72803H56.9455C59.3968 4.72803 59.7124 4.71571 59.7517 4.61852C59.8095 4.47564 59.8095 0.550003 59.7517 0.407122C59.7117 0.308129 58.9086 0.297607 51.4058 0.297607H43.1042V2.51282ZM60.6706 9.05233V17.8116H63.4402H66.2101V14.5234V11.2352H67.0114H67.8126L68.0191 11.5059C68.1331 11.6547 69.1747 13.1333 70.3341 14.7917L72.4426 17.8068L75.4492 17.8092C77.1029 17.8105 78.4558 17.7972 78.4558 17.7794C78.4558 17.7617 78.0071 17.0219 77.4591 16.1353C76.9112 15.2488 76.3596 14.3521 76.2332 14.1427C76.1069 13.9333 75.8566 13.5283 75.6766 13.2427C74.8661 11.9571 74.5198 11.3792 74.5198 11.3148C74.5198 11.2716 74.9438 11.2431 75.6403 11.2391C77.085 11.2311 77.4074 11.1484 77.9103 10.6576C78.1112 10.4613 78.3226 10.1761 78.38 10.0238C78.5174 9.65964 78.5834 2.73281 78.4558 2.03447C78.2937 1.14687 77.9424 0.762385 77.0086 0.450387C76.7047 0.348765 75.8505 0.33492 68.6706 0.315052L60.6706 0.292969V9.05233ZM80.5033 0.371817C80.1218 0.44395 79.8796 0.641103 79.752 0.982729C79.678 1.17975 79.6583 2.89113 79.6583 9.12386C79.6583 17.8282 79.6336 17.3574 80.1045 17.6505C80.298 17.7707 80.7018 17.778 88.2564 17.7984C93.8449 17.8135 96.3152 17.7972 96.5771 17.7437C97.0098 17.6552 97.2145 17.4752 97.3266 17.0848C97.4326 16.7161 97.4363 1.50455 97.3303 1.06954C97.2453 0.719396 97.1497 0.613275 96.7719 0.450872C96.5174 0.341427 95.8893 0.331389 88.6601 0.321628C84.3506 0.315744 80.6802 0.338312 80.5033 0.371817ZM72.7496 4.88607C72.9191 5.04674 72.9758 6.32458 72.8254 6.59713C72.651 6.91381 72.2892 6.946 69.1261 6.92651L66.2465 6.90866L66.2267 5.81625L66.2064 4.72381L69.4133 4.74326C72.3767 4.76119 72.6294 4.77199 72.7496 4.88607ZM92.0864 4.86648C92.2288 5.00175 92.2319 5.09721 92.2319 9.01674C92.2319 11.9353 92.2084 13.0771 92.1468 13.2065C92.0993 13.3044 91.9767 13.4072 91.8732 13.4348C91.7696 13.4624 90.2349 13.485 88.4616 13.485H85.2387L85.0723 13.3274L84.9065 13.1697V9.08118V4.99275L85.0785 4.86039C85.2424 4.73433 85.4107 4.72803 88.5954 4.72803C91.8429 4.72803 91.9446 4.73204 92.0864 4.86648Z" fill="#F7E315"/>
</g>
<defs>
<clipPath id="clip0_225_354">
<rect width="98" height="24" fill="white"/>
</clipPath>
</defs>
</svg>
