<svg width="98" height="20" viewBox="0 0 98 20" fill="none" xmlns="http://www.w3.org/2000/svg">
<g opacity="0.2" clip-path="url(#clip0_225_357)">
<path fill-rule="evenodd" clip-rule="evenodd" d="M23.9976 0.255591C23.0461 0.389037 22.116 0.851828 21.5928 1.45217C20.9832 2.1516 20.6997 2.89214 20.7013 3.78112C20.7027 4.56829 20.9893 5.36034 21.4924 5.96751C21.9421 6.51019 22.6918 6.97448 23.446 7.17741C23.9308 7.30785 24.868 7.30917 25.3409 7.18004C26.2486 6.93224 26.9761 6.43175 27.4896 5.7017C28.2771 4.58245 28.2964 3.03216 27.5372 1.89355C27.043 1.15236 26.1899 0.560687 25.313 0.350795C24.9837 0.27197 24.2562 0.219324 23.9976 0.255591ZM9.16776 2.04724C7.9623 2.13305 6.86476 2.41745 5.75202 2.93244C2.53197 4.42274 0.511719 7.50302 0.511719 10.9224C0.511719 14.2382 2.4937 17.2955 5.62472 18.8093C6.96963 19.4596 8.28714 19.7561 9.82543 19.755C10.8776 19.7542 11.6467 19.6503 12.5397 19.3883C14.6523 18.7683 16.4057 17.5244 17.6228 15.7825C19.198 13.5277 19.5955 10.6801 18.6939 8.10873C17.6903 5.24643 15.2202 3.05382 12.1592 2.30796C11.2279 2.08105 10.0884 1.98173 9.16776 2.04724ZM37.109 2.04906C35.1443 2.13414 33.54 2.70459 32.3754 3.73219C31.0868 4.86931 30.6059 6.49117 31.0643 8.15478C31.5931 10.0744 33.5109 11.2171 37.4696 11.9714C40.0144 12.4562 41.1306 12.8407 41.8238 13.4713C42.149 13.7671 42.3244 14.1101 42.3909 14.5803C42.6478 16.3982 40.7752 17.6519 38.0001 17.5198C36.5124 17.4491 35.4678 17.209 34.3085 16.6712C33.79 16.4307 32.8204 15.8549 32.4415 15.5625C32.0705 15.2762 31.7591 15.2067 31.5056 15.3537C31.3479 15.4452 30.5868 16.2139 30.4194 16.4507C30.2391 16.7059 30.2486 16.9599 30.4463 17.1679C30.9165 17.6627 32.6164 18.5922 33.8417 19.0245C35.307 19.5414 36.5977 19.756 38.2416 19.756C39.5696 19.756 40.3876 19.6424 41.4188 19.3146C44.0052 18.4924 45.4485 16.5976 45.2356 14.3036C45.0706 12.5247 43.9629 11.3468 41.6594 10.5009C40.804 10.1867 40.0197 9.98434 38.4529 9.67331C36.4803 9.2818 35.3934 8.93575 34.6692 8.46858C33.9986 8.03609 33.731 7.55902 33.7254 6.78648C33.7207 6.13199 33.9104 5.69697 34.3942 5.25356C35.5466 4.19732 37.8311 3.97298 40.1313 4.69024C40.8446 4.91263 41.3093 5.11126 42.1583 5.55663C42.5317 5.75248 42.8996 5.92478 42.9757 5.93946C43.2292 5.98839 43.4403 5.84673 43.9385 5.29336C44.4404 4.73591 44.5127 4.62783 44.5131 4.43464C44.5137 4.11406 44.2918 3.91691 43.3465 3.39789C42.384 2.86955 41.2295 2.45436 40.157 2.25092C39.1047 2.05128 38.2954 1.9977 37.109 2.04906ZM49.8181 2.50031C49.4662 2.67127 49.4566 2.70181 49.4566 3.65292C49.4566 4.59403 49.4792 4.69335 49.7268 4.8397L49.8809 4.93082L52.9994 4.95102L56.1185 4.97117L56.1395 11.9904L56.1605 19.0097L56.255 19.1355C56.415 19.3486 56.5372 19.3728 57.4551 19.3728C58.3904 19.3728 58.5007 19.3492 58.6531 19.1159L58.7491 18.9694L58.7701 11.9703L58.7917 4.97117L61.8907 4.95102C65.3377 4.92858 65.1201 4.94731 65.3069 4.65636C65.3818 4.53937 65.3895 4.44897 65.3895 3.68027C65.3895 2.70705 65.3669 2.63033 65.0385 2.48877C64.8641 2.41333 64.6645 2.41128 57.432 2.41043L50.005 2.40954L49.8181 2.50031ZM72.5168 2.4475C72.3275 2.50212 72.2161 2.58728 72.133 2.74074C72.0535 2.88677 72.0514 3.08541 72.0514 10.9138V18.9373L72.1469 19.0722C72.3367 19.3395 72.4516 19.3712 73.2864 19.386C73.7436 19.3942 74.1007 19.382 74.2069 19.3548C74.4424 19.2945 74.6143 19.1481 74.6748 18.957C74.7395 18.7513 74.7467 3.07217 74.682 2.85099C74.6323 2.6799 74.4609 2.5185 74.2623 2.45537C74.0997 2.40377 72.6902 2.3974 72.5168 2.4475ZM81.8268 2.46977C81.6344 2.55215 81.4805 2.74679 81.4507 2.94426C81.4368 3.03845 81.4307 6.67356 81.4374 11.0223C81.4497 18.545 81.4538 18.9355 81.5261 19.0619C81.6821 19.3328 81.7663 19.3523 82.7873 19.3524C83.8278 19.3527 83.9217 19.3303 84.0787 19.0463C84.1649 18.8898 84.166 18.8443 84.187 12.3793L84.208 5.86985L85.8304 7.9216C86.7232 9.05009 88.5252 11.3258 89.8351 12.9788C91.145 14.6318 92.7253 16.6279 93.3467 17.4147C93.968 18.2015 94.5458 18.9097 94.6304 18.9883C94.7146 19.0671 94.8772 19.1767 94.9911 19.2319C95.1943 19.3307 95.2174 19.3326 96.3436 19.3437C97.3996 19.354 97.5006 19.349 97.6376 19.2786C97.7192 19.2366 97.8244 19.1408 97.8711 19.0657C97.9552 18.9303 97.9557 18.8566 97.9557 10.9013C97.9557 2.94599 97.9552 2.87221 97.8711 2.7365C97.6884 2.44181 97.6474 2.431 96.6694 2.4185C95.6833 2.40587 95.5837 2.42701 95.4 2.68781L95.3041 2.82489V9.39443C95.3041 13.0077 95.2897 15.9631 95.2723 15.9619C95.2548 15.9608 95.0373 15.7021 94.789 15.3871C94.5401 15.0721 92.224 12.1276 89.6411 8.8439C87.0583 5.56014 84.8843 2.82215 84.8099 2.75941C84.7355 2.69673 84.5795 2.59688 84.4625 2.53754L84.2506 2.42971L83.1049 2.4214C82.1972 2.41482 81.9315 2.42487 81.8268 2.46977ZM10.7378 4.52618C12.2347 4.72009 13.5106 5.32575 14.6026 6.36097C15.5749 7.28268 16.127 8.23004 16.4503 9.53126C16.5634 9.98624 16.5701 10.0644 16.5681 10.9013C16.5664 11.6523 16.5523 11.8477 16.4763 12.172C16.1867 13.4085 15.6021 14.4659 14.7316 15.3281C12.706 17.3345 9.62097 17.8933 6.98256 16.7317C4.45748 15.6199 2.84716 12.9958 3.09644 10.3989C3.18593 9.46634 3.39283 8.77926 3.82584 7.97653C5.13903 5.54209 7.90817 4.15972 10.7378 4.52618Z" fill="#3F4651"/>
<path fill-rule="evenodd" clip-rule="evenodd" d="M23.9946 0.255835C23.0431 0.389282 22.113 0.852072 21.5897 1.45242C20.9801 2.15185 20.6967 2.89238 20.6982 3.78137C20.6997 4.56854 20.9863 5.36058 21.4894 5.96775C21.9391 6.51043 22.6888 6.97473 23.443 7.17765C23.9277 7.30809 24.8649 7.30941 25.3379 7.18029C26.2456 6.93248 26.9731 6.43199 27.4866 5.70195C28.2741 4.5827 28.2935 3.0324 27.5342 1.89379C27.04 1.15261 26.1869 0.560931 25.31 0.351039C24.9807 0.272214 24.2532 0.219568 23.9946 0.255835Z" fill="#E35B63"/>
</g>
<defs>
<clipPath id="clip0_225_357">
<rect width="98" height="20" fill="white"/>
</clipPath>
</defs>
</svg>
