<svg width="56" height="29" viewBox="0 0 56 29" fill="none" xmlns="http://www.w3.org/2000/svg">
<g opacity="0.2" clip-path="url(#clip0_225_360)">
<path fill-rule="evenodd" clip-rule="evenodd" d="M52.7511 0.485169C52.2635 0.675153 51.7485 1.16793 51.5124 1.67028C51.3534 2.00837 51.3208 2.16971 51.3208 2.62054C51.3208 3.31519 51.5447 3.83077 52.0486 4.29715C52.5444 4.75605 53.0138 4.91536 53.7628 4.87897C54.486 4.84388 54.9093 4.65119 55.3683 4.14822C55.7661 3.71239 55.9675 3.19891 55.9675 2.62054C55.9675 1.77759 55.4577 0.952019 54.7003 0.568113C54.2104 0.319755 53.2773 0.280115 52.7511 0.485169ZM54.5294 0.740446C54.9488 0.94211 55.3058 1.29133 55.5366 1.72546C55.6947 2.0231 55.7237 2.1615 55.7237 2.62054C55.7237 3.07959 55.6947 3.21799 55.5366 3.51562C55.3064 3.94874 54.9498 4.29802 54.5294 4.50206C54.2733 4.62641 54.0954 4.65682 53.625 4.65682C53.1046 4.65682 52.9983 4.63435 52.6704 4.45549C51.9394 4.05659 51.5581 3.42759 51.5581 2.62054C51.5581 1.68969 52.0754 0.977744 52.9967 0.640605C53.3701 0.50397 54.1422 0.554334 54.5294 0.740446ZM52.5915 2.61416C52.5915 3.76309 52.5968 3.80837 52.7293 3.80837C52.8549 3.80837 52.8672 3.7631 52.8672 3.2993V2.79023H53.1462C53.5516 2.79023 53.8097 2.94933 53.9787 3.30345C54.1328 3.62653 54.3335 3.80837 54.536 3.80837C54.7176 3.80837 54.6905 3.72726 54.3394 3.22206L54.0203 2.76288L54.2751 2.55219C54.507 2.36031 54.5279 2.3149 54.508 2.04598C54.4882 1.77868 54.46 1.73707 54.2106 1.60865C53.9995 1.49984 53.7778 1.46122 53.2633 1.44331L52.5915 1.42002V2.61416ZM53.8848 1.77685C54.1752 1.87655 54.2438 2.09702 54.036 2.2627C53.9092 2.36397 53.7831 2.3846 53.39 2.36879L52.9016 2.34904L52.8797 2.08738C52.8438 1.65555 52.887 1.61197 53.3035 1.66017C53.504 1.68345 53.7656 1.73592 53.8848 1.77685ZM3.84757 3.63441C2.52986 3.88989 1.56388 4.53118 1.10896 5.45239C0.726303 6.22733 0.701913 6.48648 0.730503 9.47041C0.755653 12.0904 0.762473 12.2086 0.915145 12.6661C1.27678 13.7499 1.90016 14.7694 3.36364 16.6705C4.80936 18.5486 5.30073 19.3455 5.68668 20.4379L5.91445 21.0828V22.9833C5.91445 24.6411 5.89881 24.9237 5.79216 25.196C5.52939 25.8667 5.0062 26.0315 4.42189 25.6275C3.95966 25.3079 3.93156 25.1674 3.92343 23.1362C3.91964 22.175 3.8989 21.3885 3.87747 21.3884C3.80176 21.3881 1.912 22.4964 1.4267 22.8257C0.645006 23.3562 0.692544 23.2335 0.728234 24.6261C0.756134 25.7171 0.776394 25.8793 0.93733 26.301C1.39288 27.4946 2.34116 28.2764 3.67003 28.554C4.26846 28.6789 5.53863 28.6764 6.16833 28.5489C7.66683 28.2456 8.75 27.2446 9.08227 25.856C9.2344 25.2202 9.2339 20.1716 9.0817 19.5868C8.82302 18.5936 8.07779 17.3652 6.16269 14.7754C5.04864 13.2689 4.48341 12.3885 4.17682 11.682L3.98537 11.2408V9.17058C3.98537 7.10634 3.98585 7.09955 4.15168 6.81432C4.44373 6.31204 4.90884 6.21287 5.45106 6.53725C5.88255 6.79545 5.90977 6.91912 5.93692 8.74633C5.95041 9.65162 5.97811 10.3923 5.99844 10.3923C6.0634 10.3923 6.79377 9.97133 7.29235 9.6466C7.55763 9.47373 8.03055 9.18614 8.34329 9.00733C9.2049 8.51482 9.20655 8.51143 9.1713 7.37187C9.14796 6.61727 9.11027 6.33233 8.98829 5.98807C8.59521 4.87864 7.81466 4.13173 6.63786 3.73893C6.06403 3.54738 4.58235 3.49187 3.84757 3.63441ZM11.4606 16.06V28.1758H13.0794H14.6983L14.7157 17.5362L14.7332 6.89672L15.181 6.87765C16.1187 6.8378 16.5703 7.32985 16.6986 8.53152C16.7874 9.36353 16.7812 14.6887 16.6909 15.0758C16.5714 15.5887 16.3725 15.731 15.3972 16.0016C15.3258 16.0214 15.3151 16.1046 15.352 16.3493C15.4318 16.8766 15.7769 18.1587 15.9321 18.5045L16.0767 18.8264L16.5073 18.7791C17.4521 18.6751 18.4271 18.216 18.9457 17.6309C19.2936 17.2385 19.6944 16.3704 19.8435 15.6867C19.9567 15.1676 19.9692 14.7348 19.9692 11.3766C19.9692 7.99346 19.9573 7.59248 19.8425 7.10033C19.5573 5.87879 18.9513 5.05783 17.9929 4.59478C16.9547 4.09311 15.8532 3.94473 13.1657 3.94432L11.4606 3.94412V16.06ZM22.238 4.00636C22.2217 4.02191 22.2084 9.46638 22.2084 16.1053V28.1758H25.6123H29.0162L28.9791 28.0231C28.755 27.0991 28.1734 25.1454 28.1108 25.1061C28.0664 25.0783 27.4644 25.0551 26.773 25.0545L25.5158 25.0535L25.4984 14.5158L25.4809 3.97806H23.8742C22.9905 3.97806 22.2542 3.99082 22.238 4.00636ZM32.5819 4.02354C32.5655 4.07315 32.4554 5.07595 32.3371 6.2519C32.132 8.28982 31.8652 10.8906 31.3379 15.9921C31.2066 17.2614 30.9431 19.8271 30.7523 21.6936C30.1989 27.1041 30.1348 27.7219 30.1021 27.9552L30.0712 28.1758H31.5403H33.0094L33.0517 27.8873C33.075 27.7287 33.2336 26.3771 33.4042 24.8838C33.5749 23.3906 33.7334 22.0389 33.7565 21.8803L33.7986 21.5918H34.9211H36.0435L36.0844 21.9142C36.1069 22.0916 36.204 23.0919 36.3001 24.1372C36.3964 25.1825 36.5204 26.4926 36.5758 27.0484C36.6313 27.6042 36.6766 28.0853 36.6766 28.1174C36.6766 28.1495 37.422 28.1758 38.3332 28.1758H39.9898L39.9524 27.9552C39.9318 27.8338 39.8358 26.9557 39.739 26.0038C39.6423 25.0518 39.4097 22.7915 39.2223 20.9809C39.0349 19.1703 38.7409 16.3298 38.5691 14.6685C38.3973 13.0073 38.1818 10.9302 38.0903 10.053C37.9987 9.17567 37.8251 7.48044 37.7043 6.28584C37.5834 5.09122 37.4563 4.08327 37.4216 4.04594C37.3829 4.00406 36.4497 3.9695 34.9851 3.95566C33.0557 3.93747 32.606 3.95016 32.5819 4.02354ZM39.6017 4.01723C39.54 4.11442 39.7845 6.68156 39.8761 6.89754L39.9765 7.13428H41.3579H42.7394V17.6551V28.1758H44.3929H46.0464V17.6551V7.13428H47.4575C48.8652 7.13428 48.8686 7.13393 48.9011 6.98156C48.9665 6.67368 49.1424 4.06012 49.102 3.99564C49.0573 3.92437 39.6471 3.94575 39.6017 4.01723ZM35.1494 9.76444C35.1837 9.8298 35.232 10.2651 35.2567 10.7317C35.2814 11.1984 35.3324 12.0078 35.37 12.5304C35.5128 14.5146 35.712 17.7926 35.712 18.1573V18.5374H34.8764H34.0408L34.0863 18.0114C34.1113 17.7221 34.1619 17.0806 34.1985 16.586C34.3099 15.0835 34.3916 14.051 34.5731 11.8517C34.6687 10.6944 34.7469 9.72462 34.7471 9.69661C34.7478 9.59249 35.0894 9.65014 35.1494 9.76444Z" fill="#E35B63"/>
</g>
<defs>
<clipPath id="clip0_225_360">
<rect width="56" height="29" fill="white"/>
</clipPath>
</defs>
</svg>
