<svg width="200" height="21" viewBox="0 0 200 21" fill="none" xmlns="http://www.w3.org/2000/svg">
<g opacity="0.15" clip-path="url(#clip0_225_340)">
<path fill-rule="evenodd" clip-rule="evenodd" d="M122.274 1.62351C121.219 2.37221 119.113 3.86285 117.592 4.93622L114.829 6.88781L112.059 3.6707C110.536 1.90126 109.269 0.474192 109.244 0.499472C109.18 0.564073 112.362 15.4381 112.44 15.4381C112.476 15.4381 115.087 12.1059 118.244 8.03339C124.059 0.53161 124.279 0.244907 124.223 0.256142C124.205 0.259574 123.328 0.874914 122.274 1.62351ZM14.186 1.26408C12.3535 2.19713 12.3106 4.81305 14.1128 5.74413C15.1301 6.26965 16.1449 6.14277 16.9844 5.38498C17.5695 4.85695 17.8344 4.27584 17.8344 3.52048C17.8344 1.60135 15.888 0.397624 14.186 1.26408ZM84.7368 3.79024C83.4573 4.00651 82.5328 4.46423 81.6266 5.32977C81.2991 5.64287 81.0307 5.85584 81.0307 5.80309C81.0307 5.75038 81.1241 5.36931 81.2379 4.9564C81.3522 4.5434 81.4455 4.15818 81.4455 4.10024C81.4455 4.03252 80.6925 3.99486 79.3414 3.99486H77.2379L75.0761 11.719C73.8874 15.9674 72.8323 19.7359 72.7312 20.0934L72.5481 20.7436L74.9501 20.7434L77.3521 20.7433L77.6797 19.573C77.8598 18.9295 78.2042 17.6898 78.445 16.8182L78.8823 15.2334L79.1715 15.6907C79.3414 15.9601 79.6644 16.2683 79.9573 16.4405C80.3879 16.6938 80.5874 16.7382 81.4476 16.773C82.6935 16.8233 83.4471 16.6455 84.7409 15.9962C86.7629 14.9813 88.2618 13.1205 89.1108 10.5719C90.0945 7.61749 89.4491 4.94704 87.5481 4.10555C87.0996 3.90706 85.896 3.67445 85.4348 3.69702C85.321 3.70264 85.0067 3.74456 84.7368 3.79024ZM194.743 3.79273C193.547 4.00214 192.132 4.76062 191.499 5.53137C191.329 5.7384 191.168 5.88632 191.142 5.86009C191.102 5.81973 191.33 4.88993 191.551 4.19023C191.612 3.99715 191.543 3.99153 189.469 4.01868L187.324 4.04687L185.006 12.3172C183.731 16.8659 182.687 20.6227 182.687 20.6656C182.687 20.7084 183.758 20.7436 185.066 20.7436H187.446L187.589 20.2494C187.668 19.9777 188.008 18.7606 188.344 17.5448C188.681 16.3289 188.98 15.337 189.008 15.3405C189.037 15.344 189.2 15.5428 189.371 15.7825C189.565 16.0554 189.892 16.3253 190.245 16.5044C191.297 17.0398 193.154 16.8559 194.768 16.0565C196.837 15.0315 198.389 13.0976 199.273 10.4447C199.659 9.28601 199.788 7.76479 199.584 6.78087C199.41 5.94123 198.911 4.9977 198.416 4.57274C197.669 3.93036 195.991 3.57416 194.743 3.79273ZM34.0887 3.94752C32.1198 4.36895 30.2074 5.59421 28.9391 7.24671C27.6277 8.9556 26.7877 11.8303 27.1307 13.4361C27.4833 15.0868 28.704 16.2581 30.5939 16.759C31.0238 16.873 31.654 16.9293 32.4825 16.9281C34.0913 16.9256 35.1872 16.6603 36.7744 15.889C37.8116 15.3849 38.061 15.2092 38.7951 14.4657C39.3959 13.8573 39.7571 13.3789 40.073 12.773C40.3152 12.3085 40.5134 11.8755 40.5134 11.8107C40.5134 11.7266 39.8386 11.693 38.1467 11.693H35.78L35.6574 11.9631C35.4361 12.4506 34.9774 12.9733 34.5088 13.272C34.1385 13.5079 33.9291 13.5656 33.4415 13.5656C32.3339 13.5656 31.9126 13.1014 31.9126 11.8812C31.9126 10.979 32.1361 10.1578 32.6906 9.0229C33.2692 7.83865 33.8321 7.2924 34.6667 7.10483C35.7601 6.85918 36.472 7.32036 36.472 8.27412V8.78022H38.9187H41.3654L41.3271 7.66189C41.2939 6.69349 41.2499 6.46366 40.9982 5.94747C40.3153 4.54726 38.5236 3.77795 35.9853 3.79502C35.3126 3.79959 34.4591 3.86825 34.0887 3.94752ZM66.2123 3.94306C62.9491 4.60551 60.521 6.7947 59.4639 10.0285C59.0797 11.2026 58.9562 12.6817 59.167 13.5793C59.4664 14.8555 60.2389 15.874 61.2792 16.3639C62.292 16.8409 62.8991 16.9468 64.6062 16.9437C65.9093 16.9414 66.2945 16.9025 66.9884 16.7032C70.4649 15.7046 73.0414 12.6867 73.4955 9.08057C73.8343 6.38909 72.5302 4.484 69.9777 3.94107C69.1073 3.7559 67.1292 3.75694 66.2123 3.94306ZM131.206 3.90155C130.122 4.04854 128.613 4.45102 127.93 4.77539C127.06 5.1885 126.185 6.05227 125.748 6.93017C125.547 7.33368 125.382 7.72776 125.382 7.80587C125.382 7.92168 125.807 7.94796 127.678 7.94796H129.974L130.331 7.52913C130.932 6.82353 131.708 6.58019 132.641 6.80479C133.464 7.00316 133.697 7.551 133.206 8.1366C132.817 8.60116 132.348 8.73878 129.767 9.14598C127.024 9.57873 126.514 9.70745 125.564 10.2063C124.174 10.9373 123.261 12.2043 122.98 13.7916C122.769 14.9878 123.341 16.0035 124.547 16.5709C125.086 16.8249 125.221 16.8424 126.626 16.8408C127.982 16.8393 128.201 16.8129 128.87 16.5687C129.277 16.4199 129.967 16.0813 130.402 15.8161C130.837 15.551 131.214 15.3341 131.239 15.3341C131.265 15.3341 131.257 15.615 131.221 15.9582L131.156 16.5824H133.761C136.436 16.5824 136.608 16.5547 136.24 16.1852C135.968 15.9125 136.148 14.949 137.084 11.641C137.603 9.81009 138.103 7.8974 138.197 7.39058C138.55 5.46842 137.947 4.58897 135.9 4.04355C135.137 3.84027 132.293 3.75424 131.206 3.90155ZM146.677 3.95949C144.669 4.39048 142.602 5.75981 141.342 7.49318C140.53 8.61094 139.817 10.4867 139.697 11.8255C139.544 13.5127 139.909 14.6374 140.905 15.5534C141.981 16.5433 143.218 16.94 145.175 16.922C148.791 16.8887 151.932 14.9049 153.053 11.9467L153.149 11.693H150.771H148.392L148.229 12.0114C147.977 12.4997 147.357 13.1424 146.922 13.365C146.664 13.4967 146.318 13.5656 145.912 13.5656C145.4 13.5656 145.24 13.5199 144.979 13.2989C144.217 12.6553 144.304 11.0717 145.206 9.15899C145.921 7.64525 146.607 7.0782 147.737 7.06903C148.331 7.06416 148.41 7.0909 148.722 7.4038C149.014 7.69693 149.061 7.81545 149.061 8.26203V8.78022H151.468H153.875L153.943 8.50871C154.056 8.05879 153.912 6.78983 153.677 6.16316C153.286 5.11703 152.089 4.28021 150.502 3.94274C149.587 3.7481 147.622 3.75663 146.677 3.95949ZM176.314 3.95262C172.546 4.7937 169.71 7.77207 169.108 11.5214C168.594 14.7164 170.757 16.8857 174.461 16.8927C176.847 16.8972 179.139 16.1321 180.611 14.8398C181.087 14.4217 182.165 13.0885 182.168 12.9154C182.168 12.8725 181.151 12.8374 179.907 12.8374H177.646L177.394 13.1111C176.998 13.5434 176.192 13.8755 175.537 13.8765C174.323 13.8783 173.61 13.0792 173.752 11.8751L173.798 11.485H178.383H182.968L183.159 10.6267C183.422 9.44715 183.42 7.78923 183.155 6.96311C182.706 5.56697 181.725 4.57056 180.335 4.10232C179.403 3.78805 177.387 3.71294 176.314 3.95262ZM45.4468 4.08078C45.3739 4.19928 41.9642 16.3316 41.9642 16.4727C41.9642 16.5524 42.6661 16.5779 44.3099 16.5584L46.6556 16.5304L47.2965 14.2418C47.649 12.983 48.2084 10.9818 48.5396 9.79452L49.1417 7.63587H51.0522C52.8231 7.63587 52.9583 7.64919 52.9078 7.81796C52.8777 7.91799 52.3379 9.84912 51.7078 12.1091C51.0777 14.3692 50.5358 16.3011 50.504 16.4024C50.4498 16.5753 50.5919 16.5846 52.8624 16.5584L55.2782 16.5304L57.0103 10.3927C57.9634 7.01694 58.7445 4.19647 58.747 4.12489C58.7506 4.02222 57.3598 3.99486 52.1256 3.99486C48.4813 3.99486 45.4758 4.03355 45.4468 4.08078ZM92.3312 4.38497C92.2726 4.59958 92.045 5.40706 91.8246 6.1795L91.4241 7.58389L93.5108 7.63587L95.5976 7.68791L94.4323 11.8491C93.7914 14.1377 93.2384 16.1389 93.2027 16.2963L93.1384 16.5824H95.4741H97.8103L97.9532 16.0883C98.0322 15.8166 98.6027 13.8035 99.2205 11.615L100.344 7.63587H102.441H104.538L104.646 7.29777C104.849 6.66506 105.486 4.25753 105.486 4.12593C105.486 4.02191 104.139 3.99486 98.9618 3.99486H92.4374L92.3312 4.38497ZM156.475 4.38497C156.417 4.59958 156.189 5.40706 155.968 6.1795L155.568 7.58389L157.632 7.61206C159.532 7.63797 159.69 7.65452 159.64 7.82011C159.611 7.91907 159.077 9.83125 158.454 12.0693C157.831 14.3074 157.29 16.2385 157.252 16.3605L157.181 16.5824H159.567H161.952L162.146 15.9323C162.252 15.5747 162.825 13.5617 163.42 11.459L164.501 7.63587H166.574H168.648L169.105 5.94543C169.357 5.0157 169.583 4.19647 169.608 4.12489C169.643 4.0218 168.3 3.99486 163.117 3.99486H156.581L156.475 4.38497ZM0.514174 4.12656C0.615521 4.23121 16.3494 12.2132 16.4545 12.2132C16.5682 12.2132 23.6486 4.19438 23.5883 4.13384C23.5687 4.11418 21.7687 4.8221 19.5882 5.7071L15.6238 7.31621L8.25042 5.75586C4.19494 4.89773 0.783603 4.16807 0.669613 4.13436C0.555628 4.10066 0.485679 4.09712 0.514174 4.12656ZM107.982 4.58252C107.922 4.80285 107.133 7.58127 106.228 10.7568L104.584 16.5304L107.589 16.558C109.243 16.5732 110.617 16.5641 110.643 16.5378C110.687 16.4934 108.192 4.29873 108.123 4.21842C108.105 4.19834 108.041 4.36218 107.982 4.58252ZM118.473 10.3752L113.791 16.5304L116.701 16.5581C118.301 16.5733 119.633 16.5635 119.66 16.5363C119.714 16.4818 123.203 4.26919 123.173 4.23891C123.162 4.22851 121.048 6.98984 118.473 10.3752ZM178.126 6.9859C178.607 7.22801 178.953 7.85755 178.955 8.49411L178.957 8.98827H176.78C175.352 8.98827 174.604 8.95135 174.604 8.88082C174.604 8.6093 175.153 7.7295 175.504 7.4397C176.243 6.82748 177.41 6.62547 178.126 6.9859ZM68.0705 7.19395C68.5756 7.45271 68.8052 7.82201 68.8736 8.4876C69.0016 9.73429 68.2363 11.897 67.3333 12.8401C66.6868 13.5151 66.2134 13.7216 65.3139 13.7216C64.6654 13.7216 64.5353 13.6885 64.2904 13.4615C63.8899 13.0907 63.7256 12.6289 63.7256 11.8763C63.7256 10.3327 64.6032 8.32406 65.6272 7.52314C66.2833 7.00992 67.4134 6.85775 68.0705 7.19395ZM84.1986 7.76351C84.6532 8.26142 84.7425 8.86601 84.5175 9.91622C84.0802 11.955 82.9675 13.08 81.3884 13.08C80.8175 13.08 80.4425 12.8295 80.1955 12.2831C79.6772 11.1375 80.3317 8.95309 81.4751 8.0127C82.144 7.46224 82.5414 7.31493 83.2481 7.35586C83.7955 7.38756 83.894 7.42982 84.1986 7.76351ZM194.066 7.53456C194.566 7.8405 194.742 8.34829 194.679 9.29954C194.533 11.5142 193.287 13.0512 191.632 13.059C190.902 13.0626 190.657 12.9397 190.374 12.4272C189.928 11.6175 190.03 10.4623 190.658 9.21318C191.006 8.51972 191.914 7.6263 192.442 7.45686C193.021 7.27094 193.687 7.30279 194.066 7.53456ZM6.20175 15.3049C3.95702 17.8679 2.05746 20.0452 1.98057 20.1433C1.90058 20.2454 3.87422 19.4983 6.5919 18.3976L11.343 16.4736L20.1995 18.3433C25.0706 19.3716 29.0648 20.2037 29.0754 20.1922C29.0929 20.1735 10.5602 10.7468 10.3646 10.6748C10.3198 10.6583 8.44659 12.7418 6.20175 15.3049ZM132.38 11.5573C132.34 11.7687 132.198 12.1599 132.063 12.4266C131.487 13.5693 130.744 14.0919 129.593 14.1661C128.244 14.253 127.735 13.8179 128.137 12.9221C128.406 12.3227 128.886 12.0505 130.203 11.7501C130.829 11.6073 131.551 11.4236 131.807 11.3419C132.464 11.1328 132.46 11.1314 132.38 11.5573Z" fill="#0B54A0"/>
<path fill-rule="evenodd" clip-rule="evenodd" d="M122.274 1.62351C121.219 2.37221 119.113 3.86284 117.592 4.93622L114.829 6.88781L112.059 3.6707C110.536 1.90126 109.269 0.474192 109.244 0.499472C109.18 0.564073 112.362 15.4381 112.44 15.4381C112.476 15.4381 115.087 12.1059 118.244 8.03339C124.059 0.53161 124.279 0.244907 124.223 0.256142C124.205 0.259574 123.328 0.874914 122.274 1.62351ZM0.514174 4.12656C0.615521 4.23121 16.3494 12.2132 16.4545 12.2132C16.5682 12.2132 23.6486 4.19438 23.5883 4.13384C23.5687 4.11418 21.7687 4.8221 19.5882 5.7071L15.6238 7.31621L8.25042 5.75586C4.19494 4.89773 0.783603 4.16807 0.669613 4.13436C0.555628 4.10066 0.485679 4.09712 0.514174 4.12656Z" fill="#E35B63"/>
</g>
<defs>
<clipPath id="clip0_225_340">
<rect width="200" height="21" fill="white"/>
</clipPath>
</defs>
</svg>
