<svg width="105" height="27" viewBox="0 0 105 27" fill="none" xmlns="http://www.w3.org/2000/svg">
<g opacity="0.2" clip-path="url(#clip0_225_343)">
<path fill-rule="evenodd" clip-rule="evenodd" d="M33.7476 7.03626C31.4746 8.261 30.3496 10.0836 30.1462 12.8691C29.827 17.2415 32.7059 20.4499 36.9291 20.428C38.8825 20.418 41.7527 19.3849 41.7222 18.7028C41.7152 18.5385 41.4502 18.0657 41.1339 17.6519C40.5993 16.9533 40.4688 16.9458 39.2926 17.5487C37.7091 18.3601 36.6107 18.3684 35.0732 17.5805C33.3389 16.6919 32.5684 15.3797 32.5684 13.3155C32.5684 11.8108 32.8055 11.2732 33.9851 10.1042C35.1131 8.98651 35.734 8.70031 37.0307 8.70031C37.9266 8.70031 39.0234 8.97327 39.4684 9.30649C40.5631 10.127 40.6955 10.0977 41.2418 8.90966C41.6602 8.00002 41.5906 7.79937 40.6451 7.18574C39.0033 6.11961 35.5861 6.04528 33.7476 7.03626ZM45.447 7.18285C39.7221 10.1757 40.8664 18.7676 47.1905 20.2711C53.2129 21.7027 58.0315 15.2492 54.9701 9.85156C53.0537 6.47306 48.9856 5.333 45.447 7.18285ZM81.5377 7.16717C79.3739 8.38158 78.0036 10.7789 77.9943 13.3663C77.987 15.6192 78.6396 17.092 80.3468 18.6756C84.7901 22.7969 92.1553 19.4568 92.1553 13.3205C92.1553 8.04092 86.1664 4.56993 81.5377 7.16717ZM55.5589 7.85179C56.3139 8.79863 56.8736 9.07278 58.0907 9.09056L59.6533 9.11321V14.6876V20.262H60.9034H62.1535V14.6876V9.11321H64.2369C66.2741 9.11321 66.3204 9.08556 66.3204 7.87451V6.63573H60.455H54.5897L55.5589 7.85179ZM67.5707 7.87451C67.5707 9.08556 67.6166 9.11321 69.6541 9.11321H71.7375V14.6876V20.262H72.9875H74.2376V14.6876V9.11321L75.7999 9.09056C77.0174 9.07278 77.577 8.79863 78.3319 7.85179L79.3008 6.63573H73.4354H67.5707V7.87451ZM93.822 13.4489V20.262H95.0581H96.2935L96.4118 15.9016L96.5301 11.5416L99.3837 15.9016C101.928 19.7892 102.368 20.262 103.447 20.262H104.656V13.4489V6.63573H103.42H102.184L102.066 11.0746L101.948 15.5135L99.0893 11.0746C96.5354 7.10771 96.1035 6.63573 95.0262 6.63573H93.822V13.4489ZM51.9862 10.1042C53.08 11.1881 53.4029 11.8517 53.4029 13.0153C53.4029 15.0059 52.4245 16.798 50.9165 17.571C47.6576 19.2408 44.2357 16.9075 44.2357 13.0153C44.2357 10.769 46.433 8.70031 48.8193 8.70031C50.254 8.70031 50.8249 8.95345 51.9862 10.1042ZM88.0072 9.83583C91.1811 12.6466 89.1748 18.2027 84.9881 18.1957C83.5992 18.1936 81.3656 16.7154 80.8938 15.4862C80.0684 13.334 80.3933 11.6015 81.9046 10.1042C83.7799 8.24572 86.0966 8.14372 88.0072 9.83583Z" fill="#3F4651"/>
<path fill-rule="evenodd" clip-rule="evenodd" d="M13.3959 8.87065C13.3959 19.713 13.0096 20.6743 8.6548 20.6743C4.86542 20.6743 3.86369 18.6378 3.83036 10.8675L3.81202 6.63518H5.27044H6.72885V11.7177C6.72885 17.3016 7.08093 18.3793 8.8252 18.1328C10.6016 17.8817 10.8829 16.5493 10.8895 8.36239L10.8958 0.798585L9.9582 1.08598C7.87309 1.72476 5.97798 2.94451 4.34956 4.69486C2.16444 7.04433 1.51231 8.31445 0.89436 11.4262C0.0343096 15.7585 1.61398 20.2221 5.1171 23.3587C9.03732 26.868 15.1768 27.6922 19.8158 25.3316C21.0526 24.7023 25.0624 21.1793 25.0641 20.721C25.0645 20.5818 22.8144 20.5252 20.0638 20.5954C15.8727 20.7024 15.0627 20.6239 15.0627 20.1131C15.0627 19.7774 16.0794 17.2582 17.3224 14.5144L19.5821 9.52557H17.3224H15.0627V8.08034V6.63518H19.2296C21.5214 6.63518 23.3965 6.78836 23.3965 6.97578C23.3965 7.16287 22.3651 9.61104 21.1047 12.4159C19.8442 15.2209 18.8129 17.5762 18.8129 17.6497C18.8129 17.7236 20.5063 17.7839 22.576 17.7839C26.9859 17.7839 26.9471 17.8227 26.9171 13.4483C26.8725 6.91183 21.9968 1.49724 15.3414 0.593367L13.3959 0.329102V8.87065Z" fill="#E35B63"/>
</g>
<defs>
<clipPath id="clip0_225_343">
<rect width="105" height="27" fill="white"/>
</clipPath>
</defs>
</svg>
